<?xml version="1.0" standalone="no"?>
<!DOCTYPE svg PUBLIC "-//W3C//DTD SVG 20010904//EN"
 "http://www.w3.org/TR/2001/REC-SVG-20010904/DTD/svg10.dtd">
<svg version="1.0" xmlns="http://www.w3.org/2000/svg"
 width="225.000000pt" height="225.000000pt" viewBox="0 0 225.000000 225.000000"
 preserveAspectRatio="xMidYMid meet">
<metadata>
Created by potrace 1.10, written by Peter Selinger 2001-2011
</metadata>
<g transform="translate(0.000000,225.000000) scale(0.100000,-0.100000)"
fill="#000000" stroke="none">
<path d="M1122 1440 c-948 -4 -1084 -7 -1092 -20 -13 -20 -13 -570 0 -590 8
-13 144 -16 1094 -20 1022 -5 1085 -4 1095 12 16 26 14 576 -2 603 -12 20 -20
20 -1095 15z m1060 -42 c19 -15 22 -53 20 -334 l-2 -201 -25 -11 c-29 -14
-431 -16 -787 -5 -204 6 -216 7 -205 24 6 10 21 20 34 24 12 3 34 16 48 29
l26 24 29 -29 c35 -35 76 -38 130 -8 l38 21 30 -22 c27 -20 34 -21 60 -11 23
10 38 10 71 0 35 -10 46 -10 81 6 31 14 43 16 52 7 18 -18 39 -15 64 9 l23 21
31 -22 c68 -49 160 -27 160 38 0 15 3 45 6 68 5 34 2 45 -20 71 l-26 31 -113
0 c-62 0 -118 -5 -125 -11 -9 -7 -20 -6 -38 2 -30 13 -93 14 -114 1 -10 -6
-24 -2 -48 17 -24 18 -42 24 -63 21 -20 -3 -34 1 -46 14 -16 18 -16 20 12 42
29 23 30 23 52 6 32 -25 173 -22 203 5 19 18 21 18 41 -1 18 -16 38 -19 130
-20 101 -1 111 0 124 20 23 32 19 79 -10 106 -23 22 -29 23 -57 12 -27 -10
-34 -8 -64 14 -26 21 -37 23 -53 15 -11 -6 -28 -11 -39 -11 -10 0 -29 -11 -42
-25 -22 -24 -25 -24 -42 -8 -28 25 -143 25 -185 0 -26 -15 -33 -16 -33 -5 0 8
-11 25 -25 38 l-24 23 -36 -27 c-29 -23 -38 -25 -56 -15 -16 8 -28 8 -47 0
-17 -8 -28 -9 -36 -1 -5 5 -23 10 -40 10 -16 0 -38 7 -48 17 -17 15 -20 15
-41 -5 -16 -15 -26 -19 -33 -12 -7 7 -20 7 -35 2 -13 -5 -73 -8 -134 -6 -88 2
-118 7 -150 23 -50 27 -56 26 -89 -4 -21 -20 -26 -33 -26 -75 0 -41 5 -56 25
-75 13 -14 29 -25 35 -25 6 0 4 -12 -5 -31 -24 -46 -65 -180 -65 -211 0 -18 8
-33 25 -44 27 -18 20 -20 92 31 10 7 17 5 24 -8 6 -9 23 -24 39 -32 17 -9 30
-22 30 -30 0 -13 -56 -15 -415 -15 l-415 0 -5 23 c-3 12 -4 135 -3 272 l3 250
192 3 192 2 -54 -55 c-36 -36 -62 -55 -78 -55 -34 0 -87 -39 -111 -80 -43 -74
-14 -209 60 -281 34 -33 36 -34 132 -35 110 -2 126 5 172 68 35 48 38 80 10
115 -25 31 -25 61 -3 108 l17 36 -42 41 c-31 29 -41 45 -37 59 4 11 -2 31 -15
49 l-21 30 298 2 c1012 9 1399 8 1415 -4z m-1712 -59 c0 -11 -5 -29 -10 -40
-13 -23 -67 -52 -75 -40 -9 16 12 57 41 80 34 26 44 27 44 0z m328 -5 c46 -32
15 -104 -44 -104 -20 0 -23 6 -26 56 -1 31 -1 58 1 60 10 9 48 3 69 -12z m392
-44 c0 -78 -17 -78 -22 0 -2 43 1 60 10 60 8 0 12 -19 12 -60z m285 1 l0 -59
-35 2 c-31 1 -35 5 -38 29 -4 32 15 60 35 53 8 -3 13 2 13 14 0 11 6 20 13 20
8 0 12 -18 12 -59z m405 38 c0 -11 4 -17 10 -14 19 12 40 -16 40 -51 0 -43
-18 -45 -22 -2 -4 46 -28 49 -28 4 0 -60 -18 -40 -22 24 -2 43 1 60 10 60 6 0
12 -9 12 -21z m-50 -14 c9 -10 9 -15 1 -15 -6 0 -11 -11 -11 -25 0 -14 5 -25
10 -25 6 0 10 -4 10 -10 0 -5 -9 -10 -20 -10 -18 0 -27 16 -31 60 -4 42 16 55
41 25z m-926 -11 c19 -18 20 -28 6 -55 -20 -36 -70 -17 -70 26 0 41 36 58 64
29z m57 -20 l5 -29 8 33 c4 17 11 32 16 32 5 0 12 -15 16 -32 l7 -33 9 33 c5
17 13 32 19 32 7 0 8 -7 4 -17 -3 -10 -9 -30 -12 -45 -6 -32 -33 -38 -33 -8 0
11 -4 20 -10 20 -5 0 -10 -9 -10 -20 0 -30 -27 -24 -34 8 -4 15 -9 35 -13 46
-3 12 -1 17 8 14 8 -3 17 -18 20 -34z m167 23 c14 -9 17 -77 3 -77 -6 0 -11
14 -13 32 -4 46 -28 49 -28 4 0 -20 -4 -36 -10 -36 -5 0 -10 19 -10 43 0 38 3
43 23 42 12 0 28 -4 35 -8z m152 -1 c28 -35 -11 -93 -47 -70 -36 22 -23 84 17
84 10 0 23 -7 30 -14z m84 2 c3 -7 7 -27 10 -45 5 -30 4 -31 -27 -30 -41 2
-50 38 -15 55 l23 11 -23 0 c-13 1 -20 5 -17 11 9 14 45 12 49 -2z m244 0 c7
-7 12 -21 12 -33 0 -43 -50 -62 -70 -26 -14 27 -13 37 6 55 19 19 36 20 52 4z
m100 -1 c14 -9 17 -77 3 -77 -6 0 -11 14 -13 32 -4 46 -28 49 -28 4 0 -23 -5
-36 -13 -36 -9 0 -13 13 -11 43 2 23 3 42 3 42 5 4 49 -2 59 -8z m298 5 c6 -4
13 -15 17 -24 5 -15 1 -18 -24 -18 -18 0 -28 -4 -24 -10 3 -5 15 -10 26 -10
10 0 19 -4 19 -10 0 -14 -43 -13 -58 2 -18 18 -15 55 6 67 21 12 24 13 38 3z
m-1616 -73 c8 0 38 3 65 7 43 5 54 3 75 -16 17 -15 21 -23 12 -27 -7 -2 -19
-18 -28 -35 -20 -38 -10 -82 23 -108 30 -23 26 -41 -22 -98 -27 -32 -57 -40
-99 -23 -11 4 -40 3 -64 -3 -45 -10 -45 -10 -78 28 -57 66 -77 155 -50 220 21
51 52 69 106 61 25 -3 52 -6 60 -6z m957 -42 c7 -5 1 -18 -18 -38 -16 -17 -29
-40 -29 -50 0 -24 -5 -24 -43 3 -26 19 -43 22 -91 20 -33 -1 -65 -7 -72 -13
-9 -7 -21 -6 -41 4 -34 18 -120 12 -145 -10 -15 -13 -18 -11 -33 19 -9 18 -27
42 -40 53 l-24 20 263 -1 c144 0 267 -3 273 -7z m-486 -152 l37 -115 -23 0
c-18 0 -24 7 -29 35 -6 33 -9 35 -45 35 -36 0 -39 -2 -45 -35 -5 -26 -12 -35
-26 -35 -11 0 -20 3 -20 6 0 9 61 207 67 217 2 4 14 7 26 7 19 0 27 -15 58
-115z m597 92 c3 -16 -1 -18 -27 -12 -31 7 -61 -6 -61 -26 0 -5 19 -21 43 -35
23 -15 45 -32 49 -38 14 -21 8 -56 -13 -77 -27 -27 -112 -24 -117 4 -3 16 1
18 27 12 73 -16 98 35 32 66 -36 17 -61 44 -61 66 0 8 11 25 25 39 31 31 97
31 103 1z m92 -26 c0 -14 5 -18 20 -14 15 4 20 0 20 -17 0 -17 -4 -20 -20 -15
-18 6 -20 2 -20 -45 0 -43 3 -53 20 -57 31 -8 25 -33 -8 -33 -41 0 -52 17 -52
83 0 36 -4 56 -10 52 -5 -3 -10 3 -10 15 0 12 5 18 10 15 6 -3 10 3 10 14 0
14 6 21 20 21 13 0 20 -7 20 -19z m-590 -21 c0 -7 6 -7 19 0 30 16 50 12 76
-15 31 -30 33 -82 4 -119 -22 -28 -66 -35 -87 -14 -9 9 -12 3 -12 -30 0 -35
-3 -42 -20 -42 -19 0 -20 7 -20 115 0 108 1 115 20 115 11 0 20 -5 20 -10z
m180 -7 c0 -15 1 -15 18 0 66 60 146 -69 82 -133 -21 -21 -69 -27 -86 -10 -6
6 -8 -4 -6 -30 4 -35 2 -40 -17 -40 -20 0 -21 5 -21 115 0 96 3 115 15 115 8
0 15 -7 15 -17z m594 -4 c55 -43 22 -149 -46 -149 -43 0 -65 15 -77 53 -14 41
-2 78 31 101 30 22 60 20 92 -5z m88 1 c-3 -11 1 -10 16 3 10 9 24 17 30 17
21 0 13 -35 -10 -45 -19 -8 -23 -19 -26 -67 -3 -50 -6 -58 -22 -58 -18 0 -20
7 -20 86 0 76 2 85 18 82 9 -2 16 -11 14 -18z m197 -6 c12 -15 21 -38 21 -51
0 -24 -2 -25 -55 -21 -36 2 -55 -1 -55 -8 0 -23 30 -37 66 -31 29 5 35 3 32
-11 -2 -12 -15 -18 -44 -20 -57 -4 -89 23 -89 76 0 80 80 122 124 66z m-692
-50 c3 -8 -2 -23 -11 -32 -15 -15 -16 -14 -16 16 0 33 16 43 27 16z m-253
-140 c11 -29 6 -34 -40 -34 -50 0 -56 16 -13 37 32 17 46 16 53 -3z"/>
<path d="M750 1290 c0 -33 3 -41 16 -38 26 5 41 35 28 56 -6 9 -19 18 -28 20
-13 3 -16 -5 -16 -38z"/>
<path d="M1427 1293 c-13 -12 -7 -43 8 -43 9 0 15 9 15 25 0 24 -10 32 -23 18z"/>
<path d="M867 1293 c-13 -12 -7 -43 7 -43 16 0 25 19 18 38 -5 13 -15 16 -25
5z"/>
<path d="M1233 1284 c-8 -21 13 -42 28 -27 13 13 5 43 -11 43 -6 0 -13 -7 -17
-16z"/>
<path d="M1568 1288 c-7 -19 2 -38 18 -38 8 0 14 10 14 25 0 26 -24 35 -32 13z"/>
<path d="M783 1070 c-10 -39 -10 -40 17 -40 27 0 27 1 17 40 -6 22 -14 40 -17
40 -3 0 -11 -18 -17 -40z"/>
<path d="M975 1054 c-36 -36 1 -114 43 -88 34 22 20 104 -18 104 -5 0 -16 -7
-25 -16z"/>
<path d="M1162 1058 c-18 -18 -15 -87 4 -95 26 -10 49 11 52 46 5 50 -27 78
-56 49z"/>
<path d="M1654 1045 c-21 -32 -7 -79 26 -83 27 -4 40 12 40 54 0 54 -38 72
-66 29z"/>
<path d="M1942 1058 c-20 -20 -14 -28 24 -28 28 0 35 3 32 18 -4 21 -39 27
-56 10z"/>
</g>
</svg>
