<?xml version="1.0" standalone="no"?>
<!DOCTYPE svg PUBLIC "-//W3C//DTD SVG 20010904//EN"
 "http://www.w3.org/TR/2001/REC-SVG-20010904/DTD/svg10.dtd">
<svg version="1.0" xmlns="http://www.w3.org/2000/svg"
 width="300.000000pt" height="165.000000pt" viewBox="0 0 300.000000 165.000000"
 preserveAspectRatio="xMidYMid meet">
<metadata>
Created by potrace 1.10, written by Peter Selinger 2001-2011
</metadata>
<g transform="translate(0.000000,165.000000) scale(0.100000,-0.100000)"
fill="#000000" stroke="none">
<path d="M1853 1402 c-51 -47 -64 -85 -70 -198 -4 -84 -2 -104 9 -104 7 0 23
-7 35 -15 17 -12 20 -20 14 -38 -5 -12 -14 -21 -20 -20 -6 2 -11 -1 -11 -6 0
-4 26 -7 58 -6 34 2 60 -2 64 -9 12 -17 10 -306 -2 -306 -12 0 -11 -7 -12 150
-1 69 -3 131 -5 138 -15 37 -21 -4 -21 -134 -1 -80 -3 -149 -6 -152 -4 -3 -7
15 -8 39 l-1 44 -7 -45 -7 -45 -1 56 c-1 32 3 61 11 68 10 11 9 12 -2 6 -22
-13 -81 -17 -81 -5 0 5 -7 10 -15 10 -11 0 -15 17 -18 73 l-3 72 -2 -82 c-2
-68 1 -83 13 -83 8 0 15 -8 15 -17 0 -14 2 -15 9 -4 12 18 32 5 25 -17 -5 -14
-3 -14 10 2 18 22 30 17 20 -8 -3 -9 -13 -16 -21 -16 -8 0 -11 -5 -8 -10 4 -6
10 -8 15 -5 13 8 18 -18 8 -37 -5 -11 -5 -26 2 -38 9 -16 8 -20 -5 -20 -8 0
-15 4 -15 8 0 5 -7 9 -15 9 -8 0 -15 -4 -15 -9 0 -4 -45 -8 -100 -8 -82 0
-100 3 -100 15 0 8 7 15 15 15 8 0 15 7 15 15 0 8 -5 15 -11 15 -8 0 -8 4 1
14 6 8 11 23 10 33 -4 36 0 63 10 63 6 0 10 -12 10 -27 0 -20 3 -24 9 -14 5 7
13 11 18 8 16 -10 36 10 29 28 -5 13 -16 16 -50 14 -32 -3 -42 -1 -39 9 3 7
23 12 50 12 24 0 42 -4 39 -9 -3 -5 5 -8 19 -7 18 1 24 6 23 23 -2 18 -8 21
-52 22 -28 0 -56 -5 -63 -11 -9 -7 -13 -7 -13 1 0 6 5 11 11 11 8 0 8 4 0 14
-9 11 -9 15 1 19 10 4 10 8 -2 16 -25 17 -30 2 -30 -85 0 -60 3 -84 13 -84 9
0 9 -2 -1 -9 -8 -4 -13 -17 -12 -27 3 -25 -10 -64 -21 -64 -12 0 -8 212 4 228
7 9 -9 12 -74 12 -65 -1 -80 -3 -65 -11 26 -16 3 -28 -43 -23 -31 3 -32 2 -11
-5 16 -6 19 -9 8 -10 -9 -1 -19 -5 -22 -10 -3 -5 14 -7 39 -5 44 5 57 -5 33
-23 -7 -5 -29 -10 -47 -12 -44 -2 -54 -11 -15 -12 l29 -1 -30 -8 -30 -8 33 -1
c17 0 32 3 32 8 0 6 9 9 20 8 11 -1 20 -5 20 -9 0 -4 8 -8 18 -8 16 1 16 1 0
11 -28 16 -21 29 15 30 l32 1 -30 8 c-29 7 -29 8 9 9 29 1 37 4 32 16 -3 9 0
15 9 15 12 0 15 -19 15 -102 0 -70 -3 -98 -10 -88 -7 11 -10 11 -10 2 0 -8 -5
-10 -12 -5 -7 4 -23 6 -35 5 -11 -2 -23 0 -26 5 -3 4 10 8 29 9 19 0 39 5 45
11 6 6 -7 9 -41 7 -29 -2 -50 1 -50 7 0 5 6 9 13 8 6 -1 23 -1 37 0 18 1 21 4
11 10 -11 7 -11 9 0 14 8 3 4 6 -9 6 -13 1 -21 -3 -17 -8 3 -5 1 -12 -5 -16
-5 -3 -10 1 -10 9 0 23 -17 20 -23 -4 -3 -13 -10 -18 -21 -14 -11 4 -16 1 -16
-10 0 -9 -7 -16 -16 -16 -8 0 -13 -4 -9 -9 3 -5 -3 -12 -12 -14 -10 -3 -2 -6
17 -7 29 -1 32 -3 15 -10 -18 -8 -18 -9 5 -9 20 -1 22 -3 10 -11 -13 -9 -13
-10 0 -10 13 0 13 -1 0 -10 -12 -8 -11 -10 6 -10 24 0 40 26 21 34 -7 2 3 5
21 5 17 1 32 -4 32 -9 0 -6 14 -4 35 4 33 14 35 14 35 -5 0 -14 -7 -19 -28
-19 -16 0 -34 -8 -42 -20 -12 -17 -26 -19 -102 -19 l-88 0 0 30 c0 21 -5 29
-18 29 -10 0 -19 -7 -19 -15 0 -8 6 -15 14 -15 7 0 13 -7 13 -15 0 -9 -9 -15
-25 -15 -20 0 -25 5 -25 24 0 23 -16 44 -25 34 -3 -2 0 -21 6 -41 l10 -37 152
-1 c84 0 146 -3 139 -6 -6 -2 -9 -10 -5 -16 4 -7 0 -8 -13 -1 -10 5 -59 7
-109 6 -106 -4 -198 6 -190 19 4 5 -1 9 -10 9 -11 0 -15 5 -11 15 3 9 0 15 -9
15 -15 0 -21 -35 -7 -43 4 -2 0 -1 -8 1 -8 3 -25 6 -37 6 -11 1 -19 4 -16 9 2
4 -2 7 -11 7 -8 0 -17 6 -20 13 -5 10 -7 10 -12 0 -3 -7 -12 -13 -20 -13 -9 0
-13 -4 -10 -9 3 -5 -2 -15 -11 -22 -10 -8 -14 -9 -10 -2 4 6 3 14 -3 18 -5 3
-10 -1 -10 -9 0 -9 -4 -16 -9 -16 -4 0 -8 17 -8 38 l0 37 98 -3 c85 -3 99 -1
99 12 0 19 -16 21 -23 4 -3 -10 -9 -10 -23 -2 -14 8 -24 8 -37 0 -14 -8 -20
-8 -27 4 -9 13 -11 13 -19 1 -7 -12 -13 -12 -24 -3 -7 7 -16 11 -18 9 -2 -1 1
3 7 8 7 6 71 9 162 7 122 -2 150 -6 146 -16 -3 -8 0 -17 6 -21 9 -6 9 -10 -1
-16 -10 -6 -6 -9 14 -9 25 0 27 2 16 22 -9 18 -9 20 4 15 8 -3 18 -3 21 0 11
11 -16 33 -40 33 -13 0 -24 5 -24 10 0 6 -5 10 -11 10 -5 0 -7 -4 -4 -10 3 -5
-1 -10 -10 -10 -9 0 -13 5 -10 10 4 6 -18 10 -59 10 -36 0 -66 4 -66 10 0 5
-18 3 -40 -5 -37 -13 -44 -12 -41 8 0 4 -4 7 -9 7 -6 0 -10 -8 -11 -17 0 -15
-2 -15 -9 2 -8 19 -9 19 -9 1 -1 -11 -4 -16 -8 -12 -13 13 -9 31 7 38 11 5 8
7 -9 7 -16 1 -22 -3 -17 -14 3 -8 -1 -21 -9 -29 -8 -8 -16 -23 -16 -33 -1 -10
-5 -2 -9 17 l-7 35 -2 -32 c0 -19 -6 -33 -13 -33 -9 0 -9 -3 -3 -8 16 -11 18
-72 3 -73 -7 0 -28 -2 -47 -4 -22 -2 -29 0 -20 6 19 12 -3 12 -35 0 -17 -7
-26 -7 -30 2 -3 9 -5 9 -5 0 -1 -7 -10 -13 -22 -13 -18 0 -19 2 -5 15 8 8 24
15 35 15 12 0 21 5 21 11 0 6 -7 9 -15 6 -8 -4 -17 -1 -21 5 -4 7 -10 5 -16
-6 -6 -11 -24 -16 -56 -17 -26 0 -41 -3 -34 -6 19 -8 14 -20 -8 -19 -12 0 -25
7 -29 15 -8 12 -12 11 -28 -4 -17 -18 -18 -18 -21 2 -3 21 -3 21 -54 2 -28
-10 -53 -18 -57 -17 -3 0 -49 -1 -101 -2 -80 -2 -91 -4 -67 -13 21 -9 27 -17
27 -41 0 -82 12 -321 16 -325 2 -2 4 80 4 183 0 167 2 187 16 182 9 -3 24 -6
35 -6 18 0 19 -10 19 -212 0 -116 3 -208 7 -205 3 4 5 102 4 218 -2 171 0 210
11 207 9 -3 15 -38 19 -119 17 -318 23 -389 29 -389 4 0 7 112 6 250 -1 137 1
250 4 251 28 5 100 8 117 4 19 -4 23 -13 26 -58 l3 -52 4 60 c3 36 6 -1 10
-95 l6 -155 2 150 2 150 29 1 c27 1 29 -2 35 -44 3 -24 6 -106 6 -180 0 -74 2
-133 4 -131 2 2 7 69 11 149 3 79 11 153 17 163 13 25 -8 50 -22 27 -8 -13
-10 -12 -10 3 0 9 6 17 14 17 40 0 41 -3 41 -215 0 -113 3 -205 8 -205 4 0 7
94 7 210 l0 210 25 0 25 0 0 -227 c0 -219 1 -227 17 -198 14 25 17 61 18 227
0 125 4 198 10 198 6 0 9 -54 8 -147 -2 -133 -1 -143 10 -100 7 27 16 45 21
40 4 -4 6 40 4 100 -2 59 0 107 4 107 5 0 8 -5 8 -12 0 -9 3 -9 11 -1 6 6 19
8 30 6 17 -5 19 -15 19 -109 0 -63 4 -104 10 -104 6 0 10 44 10 112 0 73 3
109 10 102 6 -6 10 -109 10 -257 1 -148 5 -247 11 -247 5 0 9 21 10 48 0 26 1
130 3 232 1 102 -1 195 -5 207 -5 14 -4 20 4 19 31 -4 33 -18 32 -210 -1 -123
2 -193 8 -189 6 4 7 1 1 -8 -12 -20 -14 -38 -3 -45 6 -3 5 -12 -3 -22 -11 -13
-11 -14 2 -7 13 8 13 7 1 -8 -12 -15 -11 -17 3 -17 16 0 18 25 20 426 1 75 3
82 21 82 18 0 20 -6 16 -47 -4 -43 -5 -44 -12 -16 -3 17 -7 -41 -8 -128 -1
-103 2 -156 9 -152 5 3 10 1 10 -4 0 -6 -4 -11 -9 -11 -5 0 -8 -8 -6 -17 2
-10 4 -20 4 -23 1 -3 6 2 11 10 9 13 10 13 12 0 1 -8 5 75 8 185 l5 200 123 2
122 1 2 -121 c1 -98 3 -111 8 -67 8 60 7 76 9 -222 1 -67 5 -98 13 -98 8 0 9
41 4 156 -3 85 -2 153 2 150 5 -3 9 1 9 9 0 8 -4 15 -9 15 -4 0 -8 17 -8 38 0
27 -3 33 -10 22 -8 -13 -10 -12 -10 3 0 9 4 17 8 17 5 0 8 19 8 43 -1 35 2 42
19 45 19 3 20 -4 23 -245 1 -135 4 -249 7 -251 2 -2 11 -2 20 1 13 6 15 40 15
257 0 160 4 250 10 250 6 0 10 -45 11 -112 1 -62 4 -151 8 -198 7 -70 8 -51 9
113 1 123 6 197 12 197 6 0 11 -71 12 -187 l2 -188 6 188 c3 103 8 187 13 187
31 0 32 0 21 -8 -7 -4 -11 -32 -11 -64 1 -32 4 -55 7 -52 3 3 6 10 6 15 1 5 2
14 3 19 0 6 6 10 12 10 6 0 9 -9 6 -20 -6 -23 -1 -25 17 -7 18 18 26 77 10 77
-6 0 -17 7 -24 15 -11 13 -8 15 18 15 31 0 31 0 35 -63 l3 -62 2 63 2 62 36 0
c21 0 33 -4 29 -10 -7 -12 -8 -491 0 -498 3 -3 7 -3 10 -1 3 4 9 356 7 469 -1
19 1 36 2 38 2 2 21 2 42 0 35 -3 37 -4 21 -19 -14 -14 -16 -46 -16 -239 1
-122 3 -229 6 -236 3 -8 11 -14 19 -14 14 0 14 -3 18 382 1 121 2 128 21 128
19 0 20 -6 18 -234 -2 -248 1 -276 24 -276 11 0 13 36 12 220 -1 121 -5 236
-9 255 -8 34 2 56 15 35 4 -7 13 -7 26 0 27 15 39 5 41 -38 l1 -37 5 35 c4 29
6 32 12 15 7 -17 9 -16 9 10 1 21 4 26 12 18 6 -6 18 -9 25 -6 16 6 16 7 14
-172 -1 -66 1 -117 4 -114 3 3 6 71 7 150 0 134 2 146 21 158 11 7 23 10 26 6
4 -3 2 -9 -4 -13 -7 -4 -13 -24 -16 -44 -2 -22 0 -34 6 -31 6 4 6 -1 1 -13 -5
-10 -10 -39 -11 -64 -1 -25 0 -35 3 -22 4 19 7 21 19 11 12 -10 14 1 14 70 0
46 4 81 10 81 5 0 11 -61 13 -147 l3 -148 2 148 2 147 28 0 c15 0 34 -5 42
-10 13 -8 13 -11 -2 -27 -15 -14 -18 -14 -18 -3 0 11 -2 12 -8 3 -9 -14 -7
-151 2 -160 3 -4 6 24 6 62 0 38 3 65 6 62 8 -7 10 -39 19 -272 3 -87 8 -161
10 -164 3 -2 5 114 5 258 0 236 2 263 16 257 9 -3 18 -6 20 -6 2 0 4 -5 4 -11
0 -5 -5 -7 -12 -3 -8 5 -9 -50 -4 -222 7 -216 14 -297 18 -188 1 50 5 126 11
224 2 30 5 90 5 133 l2 77 38 0 c20 0 44 -5 52 -10 13 -8 13 -10 -1 -10 -9 0
-16 -7 -16 -15 0 -8 4 -15 8 -15 8 0 7 -20 -3 -36 -8 -12 -6 -124 2 -124 3 0
6 -33 7 -73 5 -135 15 -237 24 -237 5 0 9 108 9 255 0 197 3 255 13 255 9 0
12 -54 11 -238 0 -249 1 -272 20 -272 8 0 10 70 8 255 -2 215 0 255 12 255 11
0 14 -31 13 -177 -1 -316 0 -333 23 -333 17 0 20 7 21 43 4 339 11 463 26 474
13 10 10 13 -18 21 -19 5 -33 14 -32 21 2 6 -4 11 -12 11 -9 0 -12 -6 -9 -15
4 -8 1 -15 -5 -15 -6 0 -11 7 -11 15 0 8 -4 15 -10 15 -5 0 -10 -5 -10 -11 0
-8 -4 -8 -15 1 -8 6 -20 10 -27 7 -8 -4 -7 -6 5 -6 9 -1 17 -5 17 -10 0 -4
-11 -6 -25 -3 -14 2 -25 0 -25 -7 0 -7 -8 -8 -22 -2 -13 4 -38 6 -55 4 -25 -3
-33 0 -33 11 0 9 -9 16 -20 16 -25 0 -36 25 -20 45 9 11 30 13 98 8 143 -9
147 -9 156 -5 4 3 41 5 81 6 40 0 71 4 69 8 -3 4 -47 6 -99 5 -81 -2 -94 0
-89 13 3 8 9 23 11 33 4 11 9 14 17 8 7 -6 16 -4 24 5 7 8 8 14 2 14 -5 0 -10
12 -10 28 0 29 -15 60 -25 51 -3 -4 -1 -18 5 -33 13 -34 13 -46 0 -46 -5 0
-10 12 -10 28 0 15 -5 34 -10 42 -9 13 -11 13 -20 0 -5 -8 -9 -26 -9 -40 1
-23 2 -22 8 5 l7 30 7 -25 c10 -36 9 -40 -8 -40 -8 0 -15 -8 -15 -17 0 -15 2
-16 10 -3 15 23 22 5 9 -24 -11 -24 -17 -26 -74 -26 -35 0 -66 5 -73 12 -10
10 -14 10 -21 0 -11 -18 -73 -11 -78 8 -3 9 -1 11 4 5 11 -15 59 -13 56 3 -3
11 35 17 73 13 6 -1 10 9 10 21 -1 13 4 22 12 21 6 -2 12 2 12 8 0 8 4 8 14 0
12 -10 13 -8 8 11 -4 19 -3 21 9 11 12 -10 15 -8 15 8 0 10 -6 19 -14 19 -7 0
-10 5 -7 11 4 6 13 8 21 5 8 -3 14 -1 14 4 0 15 260 9 275 -7 8 -7 28 -13 45
-13 25 0 31 -3 26 -16 -3 -9 -6 -18 -6 -20 0 -2 -7 -4 -15 -4 -9 0 -12 6 -9
15 5 11 2 14 -12 8 -24 -9 -34 -23 -34 -50 0 -13 -4 -23 -10 -23 -13 0 -13 53
0 66 8 8 -1 11 -30 11 -22 0 -40 -4 -40 -9 0 -5 4 -7 8 -4 5 3 9 -8 10 -24 0
-17 -3 -30 -8 -30 -11 0 -20 26 -20 61 0 21 -4 27 -15 23 -8 -4 -15 -1 -15 5
0 16 -25 13 -40 -4 -11 -13 -15 -57 -9 -107 1 -9 8 -14 15 -11 7 2 10 11 7 19
-3 8 0 14 6 14 6 0 11 -4 11 -10 0 -5 14 -10 30 -10 17 0 30 -4 30 -10 0 -5 5
-10 11 -10 5 0 7 5 3 12 -4 7 -3 8 4 4 7 -4 12 -13 12 -21 0 -8 7 -11 20 -8
11 3 20 14 20 24 0 13 7 19 23 20 16 0 18 2 7 7 -25 12 -22 32 6 32 14 0 23
-4 19 -10 -3 -5 0 -10 8 -10 16 0 35 38 30 61 -3 10 -23 22 -48 29 -25 7 -50
19 -56 26 -6 8 -19 14 -28 15 -9 1 -5 4 9 9 21 7 18 8 -18 9 -27 1 -41 -3 -37
-9 4 -6 9 -8 13 -6 4 2 13 -2 20 -10 11 -12 8 -14 -17 -14 -31 0 -41 13 -33
43 4 16 13 18 52 15 27 -1 46 0 43 5 -2 4 -14 7 -26 7 -17 0 -19 2 -8 9 11 7
4 11 -25 14 -38 4 -38 4 8 5 52 2 61 11 72 73 7 39 -1 72 -15 63 -5 -3 -9 0
-9 5 0 6 -8 11 -17 11 -14 0 -15 2 -4 9 11 7 11 9 0 14 -11 4 -11 6 1 6 13 1
13 2 0 11 -12 8 -12 10 -1 10 16 0 51 38 51 56 0 7 -4 24 -10 38 l-10 26 -142
0 c-100 0 -139 -3 -131 -11 5 -5 27 -11 47 -12 39 -2 50 -17 14 -18 -22 0 -22
-1 -3 -8 20 -8 20 -8 0 -13 -19 -5 -19 -6 2 -7 12 0 24 -7 26 -13 4 -10 6 -10
6 0 1 6 11 12 24 12 18 0 19 -2 7 -10 -8 -5 -10 -10 -5 -10 6 1 19 7 29 15 10
8 22 12 26 10 4 -2 5 7 2 22 -4 21 -2 25 12 20 9 -4 16 -3 16 1 0 4 14 9 30
10 19 1 30 -2 30 -10 0 -7 3 -23 6 -35 6 -20 3 -23 -25 -23 -19 0 -31 -5 -31
-13 0 -10 -20 -14 -80 -14 -62 -1 -80 2 -80 13 0 9 -11 14 -29 14 -25 0 -30 4
-36 38 -6 33 -8 34 -15 15 -6 -13 -21 -24 -42 -29 -18 -4 -28 -9 -21 -11 8 -3
10 -15 6 -34 -5 -28 -4 -29 31 -29 29 0 36 -4 36 -20 0 -11 -5 -20 -11 -20 -8
0 -7 -6 2 -17 13 -15 11 -16 -23 -10 -21 3 -38 2 -38 -4 0 -5 42 -10 93 -11
66 -1 76 -3 35 -5 -75 -5 -75 -19 -1 -16 32 2 52 0 46 -3 -9 -4 -10 -11 -3
-23 13 -26 4 -31 -54 -31 -44 0 -48 2 -31 13 18 14 13 43 -6 32 -5 -4 -12 1
-15 9 -4 10 -18 16 -38 15 -30 -1 -30 -1 -6 -9 24 -8 24 -8 3 -9 -16 -1 -23
-7 -23 -21 0 -13 6 -20 18 -19 10 0 12 3 4 6 -6 2 -9 9 -6 14 4 6 11 6 19 -1
11 -9 11 -14 -3 -29 -9 -10 -20 -16 -24 -14 -5 2 -8 -3 -8 -11 0 -11 10 -16
34 -16 31 0 34 -3 38 -35 3 -24 -1 -36 -11 -40 -14 -5 -14 -7 -1 -16 13 -9 13
-10 0 -6 -15 4 -16 13 -9 51 3 15 -3 20 -26 23 -27 3 -28 2 -10 -9 19 -11 19
-11 0 -19 -17 -7 -18 -8 -2 -8 11 -1 17 -9 17 -23 0 -21 0 -21 -14 -2 -14 18
-15 18 -12 0 1 -10 10 -22 19 -28 9 -5 17 -18 17 -28 0 -20 -35 -46 -44 -32
-3 4 -6 92 -7 195 -1 103 -6 187 -11 187 -11 0 -4 -361 6 -379 5 -8 -20 -11
-88 -11 -71 0 -95 3 -94 12 5 22 32 37 63 36 30 -1 29 -1 -5 -8 l-35 -7 38 -2
c20 0 37 4 37 9 0 6 9 10 19 10 22 0 31 47 23 118 -4 32 -8 42 -19 38 -8 -4
-28 -6 -44 -6 -22 0 -29 -5 -29 -20 0 -17 4 -18 25 -10 21 8 25 7 25 -9 0 -14
-6 -17 -24 -14 -13 3 -27 0 -30 -6 -5 -7 9 -11 43 -11 28 0 51 -4 51 -10 0 -5
-7 -7 -15 -4 -10 4 -13 0 -10 -15 2 -13 -1 -21 -10 -21 -8 0 -11 7 -8 20 4 15
1 20 -13 19 -11 0 -14 -3 -7 -5 15 -7 5 -34 -12 -34 -8 0 -12 8 -10 19 4 20
-14 33 -47 36 -15 2 -18 -7 -18 -59 0 -34 -5 -67 -11 -73 -8 -8 -7 -13 1 -18
15 -9 164 -10 179 -1 6 4 16 4 23 0 21 -13 -24 -23 -114 -23 -90 -1 -114 -12
-55 -26 l32 -8 -29 -4 c-32 -5 -49 12 -40 39 3 11 -1 17 -13 17 -10 0 -39 2
-65 3 -28 2 -49 -1 -52 -8 -2 -6 10 -11 31 -12 54 -2 53 -11 -1 -10 -32 0 -46
5 -46 14 0 10 -15 14 -55 14 -55 0 -62 -4 -46 -28 11 -18 176 -19 197 -1 19
15 25 9 17 -19 -5 -21 -9 -22 -129 -20 -113 1 -124 3 -124 20 0 22 -26 24 -34
2 -3 -8 -2 -12 3 -9 5 3 12 1 16 -5 4 -6 -6 -10 -24 -10 -17 0 -31 4 -31 9 0
5 -7 12 -16 15 -12 4 -15 2 -10 -9 3 -8 1 -15 -3 -15 -12 0 -23 29 -15 41 3 5
29 9 59 9 50 0 54 1 50 22 -3 13 -5 79 -6 148 0 69 -5 130 -10 136 -13 16 19
28 36 14 9 -8 15 -7 19 2 3 7 3 -2 0 -20 -5 -28 -3 -33 12 -30 9 2 18 -3 20
-10 1 -7 0 -8 -2 -3 -7 14 -34 2 -34 -14 0 -8 14 -16 33 -18 32 -4 32 -4 -3
-3 -33 1 -35 3 -41 41 -3 22 -6 -30 -6 -115 1 -153 1 -154 7 -45 l6 110 2 -92
2 -92 53 6 c28 3 54 7 56 9 2 2 -4 13 -14 24 -15 16 -16 23 -6 33 10 9 11 8 6
-5 -4 -10 -3 -18 3 -18 5 0 12 9 15 20 4 17 0 20 -31 20 -28 0 -33 -3 -22 -10
11 -7 8 -10 -16 -10 -21 0 -31 5 -31 15 0 8 4 15 9 15 4 0 8 -5 8 -12 0 -6 6
-4 13 7 10 13 21 16 39 12 18 -5 28 -2 32 8 4 12 -4 15 -37 15 -31 0 -38 3
-27 10 8 5 25 10 38 10 13 0 22 6 22 16 0 9 -5 12 -12 8 -10 -6 -9 -3 0 9 8 9
12 26 10 39 -2 17 -8 22 -25 20 -13 -2 -23 2 -23 7 0 6 11 11 25 11 22 0 25 4
23 30 -1 17 -5 30 -8 31 -55 5 -97 5 -106 -2 -14 -11 -54 0 -54 16 0 14 58 27
62 14 2 -4 28 -4 58 0 51 8 52 9 15 10 -37 1 -89 20 -57 21 11 0 13 18 9 78
-8 147 -35 214 -94 238 -44 19 -46 18 -80 -14z m77 -6 c0 -6 11 -19 24 -31 13
-11 27 -29 30 -40 5 -19 2 -20 -68 -17 l-74 3 -11 -32 c-14 -39 -14 -40 0 -37
19 5 21 -20 2 -25 -14 -4 -13 -5 5 -6 20 -1 23 3 20 32 -3 32 -3 32 42 32 25
0 49 5 53 10 5 6 6 -2 3 -17 -5 -22 -3 -25 13 -21 13 3 17 11 14 24 -3 10 0
19 6 19 6 0 11 -19 11 -45 0 -56 0 -58 8 -70 12 -17 8 -58 -5 -62 -9 -3 -13 8
-13 36 0 35 -3 41 -22 42 -28 2 -119 2 -135 0 -8 -1 -13 -16 -13 -42 0 -27 -4
-39 -12 -37 -15 5 -22 64 -8 73 5 3 10 33 10 66 0 32 4 59 9 59 5 0 12 11 15
25 3 13 15 29 26 35 11 6 20 16 20 23 0 7 11 13 25 13 14 0 25 -5 25 -10z m20
-226 c-13 -8 -13 -10 2 -10 9 0 19 6 21 13 3 7 6 5 6 -5 1 -13 -7 -18 -24 -18
-16 0 -25 6 -25 15 0 8 8 15 18 15 14 0 15 -2 2 -10z m600 -24 c0 -10 -10 -14
-30 -14 -29 1 -37 8 -23 21 12 13 53 7 53 -7z m-672 -23 c2 -8 -6 -13 -22 -13
-17 0 -26 5 -26 16 0 19 41 16 48 -3z m102 2 c0 -9 -9 -15 -25 -15 -16 0 -25
6 -25 15 0 9 9 15 25 15 16 0 25 -6 25 -15z m810 -29 c0 -26 -24 -51 -40 -41
-5 3 -10 0 -10 -7 0 -9 -3 -9 -10 2 -5 8 -10 10 -10 5 0 -6 -12 -12 -27 -13
-22 -1 -24 0 -13 8 13 8 12 10 -2 10 -10 0 -18 -3 -18 -7 0 -5 -11 -8 -25 -8
-22 0 -25 4 -25 38 l0 37 90 0 c88 0 90 -1 90 -24z m-862 -14 c6 -18 -56 -15
-75 3 -14 14 -11 16 28 13 23 -2 44 -9 47 -16z m905 -45 c34 -13 9 -22 -45
-17 -34 3 -43 5 -25 8 16 2 31 10 34 19 3 8 9 11 12 6 3 -5 14 -12 24 -16z
m-116 -47 c1 -14 -4 -20 -18 -20 -12 0 -19 7 -19 20 0 13 7 20 18 20 11 0 18
-8 19 -20z m113 11 c0 -8 -79 -3 -89 5 -2 2 17 4 42 4 26 0 47 -4 47 -9z m0
-41 c0 -5 -17 -11 -37 -11 l-38 -2 40 -7 40 -7 -47 -2 c-45 -1 -49 3 -39 37 3
8 81 0 81 -8z m-110 -15 c0 -8 -8 -15 -18 -15 -10 0 -19 7 -19 15 0 8 9 15 19
15 10 0 18 -7 18 -15z m-80 -57 c0 -9 4 -8 10 2 5 8 10 11 11 5 0 -5 2 -20 5
-32 2 -15 -3 -26 -15 -33 -26 -13 -71 -13 -71 1 0 5 5 7 10 4 6 -3 17 0 25 9
14 13 12 15 -11 13 -15 -1 -29 4 -31 11 -3 7 4 12 19 12 18 0 20 2 8 10 -12 8
-9 10 13 10 15 0 27 -6 27 -12z m-983 -274 c2 -7 -10 -10 -34 -8 -21 2 -42 3
-46 3 -5 1 -5 6 -2 12 9 13 77 8 82 -7z m193 -1 c0 -16 1 -16 13 0 10 14 18
15 44 8 19 -6 35 -6 38 -1 6 9 106 7 122 -3 4 -3 34 -4 66 -3 43 2 57 -1 57
-11 0 -8 -4 -12 -9 -9 -5 4 -11 2 -13 -4 -2 -6 -23 -14 -48 -20 l-45 -9 45 1
c78 2 110 -2 110 -13 0 -6 -7 -9 -15 -5 -8 3 -15 1 -15 -4 0 -14 -143 -11
-152 3 -6 9 -8 9 -8 -1 0 -7 -4 -10 -10 -7 -17 10 -11 25 9 25 27 0 34 15 15
34 -21 21 -23 20 -18 -6 2 -13 2 -17 -2 -10 -3 6 -16 12 -29 12 -13 0 -25 6
-28 13 -3 9 -9 9 -28 0 -19 -9 -138 -20 -242 -23 -5 0 -5 -4 -2 -10 3 -5 22
-7 41 -4 24 4 34 1 34 -8 0 -10 2 -10 9 1 5 8 16 11 27 7 10 -4 21 -1 26 6 8
10 11 10 15 1 3 -9 25 -12 66 -11 l62 1 -55 7 -55 7 63 1 c40 1 61 -2 57 -8
-3 -5 -1 -10 4 -10 6 0 11 -6 11 -14 0 -12 -22 -15 -109 -18 -60 -2 -107 0
-105 4 2 3 -12 5 -31 3 -20 -2 -48 3 -63 11 -15 7 -35 11 -44 8 -12 -3 -18 0
-18 10 0 9 -4 16 -10 16 -5 0 -7 -7 -4 -15 4 -10 0 -15 -15 -15 -12 0 -21 6
-21 15 0 8 -5 15 -11 15 -7 0 -9 -10 -5 -24 7 -28 -8 -44 -21 -23 -4 8 -14 16
-22 19 -8 2 -15 12 -17 21 -2 15 8 17 77 17 46 0 79 4 79 10 0 15 30 12 31 -2
0 -10 2 -10 6 0 2 6 13 12 24 12 10 0 19 5 19 10 0 6 23 10 50 10 40 0 50 -3
50 -17z m374 -15 c5 -21 3 -28 -9 -28 -15 0 -22 40 -8 53 8 9 9 8 17 -25z m56
-4 c0 -13 -4 -24 -10 -24 -5 0 -10 14 -10 31 0 17 4 28 10 24 6 -3 10 -17 10
-31z m90 28 c0 -4 -5 -13 -12 -20 -7 -7 -8 -12 -2 -12 5 0 3 -4 -4 -9 -21 -13
-62 -1 -62 18 0 10 3 21 7 24 9 10 73 9 73 -1z m-10 -74 c0 -5 -16 -8 -35 -8
-19 0 -35 4 -35 9 0 6 16 9 35 8 19 -1 35 -5 35 -9z m316 -36 c-2 -4 -8 -64
-11 -132 -4 -69 -9 -127 -11 -130 -7 -6 -3 241 3 257 3 7 9 13 15 13 5 0 7 -4
4 -8z"/>
<path d="M2643 1099 c9 -6 15 -14 12 -20 -4 -5 1 -9 9 -9 9 0 16 9 16 20 0 15
-7 20 -27 20 -24 -1 -26 -2 -10 -11z"/>
<path d="M2690 1090 c0 -11 6 -20 13 -20 7 0 20 9 30 20 16 19 16 20 -13 20
-23 0 -30 -4 -30 -20z"/>
<path d="M2269 1397 c0 -18 -3 -45 -5 -62 -3 -16 -5 -37 -4 -45 0 -8 1 -24 2
-35 0 -17 6 -20 44 -16 28 2 44 -1 44 -8 0 -6 -8 -11 -17 -11 -16 0 -16 -2 -3
-11 12 -9 11 -9 -5 -4 -56 20 -58 20 -53 -10 3 -15 2 -40 -2 -56 -5 -15 -4
-44 0 -65 5 -20 5 -46 1 -58 -4 -11 -5 -37 -2 -56 5 -29 10 -35 30 -35 13 0
26 5 28 12 3 7 -3 9 -16 6 -13 -3 -21 -1 -21 7 0 8 20 11 68 8 l68 -3 -4 28
c-2 15 -11 27 -19 27 -9 0 -11 -5 -7 -12 5 -9 2 -9 -9 1 -9 7 -17 20 -17 27 0
17 -10 17 -44 4 -14 -5 -26 -6 -27 -2 0 4 -2 16 -4 27 -4 21 -4 21 83 16 16
-1 22 -7 23 -23 l0 -23 10 23 c6 17 5 27 -5 38 -17 16 -30 19 -21 4 9 -15 -4
-12 -20 4 -9 9 -28 12 -54 9 -44 -5 -50 0 -26 23 8 9 15 11 15 5 0 -6 7 -11
16 -11 8 0 12 5 9 10 -3 6 1 10 9 10 9 0 16 -4 16 -9 0 -16 29 -20 44 -6 13
13 16 11 25 -13 10 -25 11 -25 6 -2 -2 14 -5 40 -5 58 0 24 -4 32 -18 32 -21
0 -45 43 -32 56 5 5 10 23 12 39 2 25 -1 31 -19 33 -13 2 -23 8 -23 13 0 6 5
7 10 4 6 -3 10 -1 10 4 0 6 -9 11 -21 11 -14 0 -19 -5 -16 -14 4 -10 1 -13 -8
-10 -11 5 -12 10 -2 25 6 10 17 19 24 19 7 0 12 5 11 11 -2 6 5 16 15 22 15
10 21 8 32 -7 16 -22 31 -16 22 9 -10 24 -103 15 -94 -9 2 -6 -4 -18 -14 -28
-16 -15 -17 -15 -22 2 -3 11 1 21 9 24 21 8 17 22 -6 23 -16 1 -20 -5 -21 -30z
m51 -94 c0 -10 -4 -24 -9 -32 -8 -12 -12 -12 -25 2 -24 24 -20 47 9 47 17 0
25 -5 25 -17z m32 -18 c-2 -14 -8 -25 -13 -25 -10 0 -12 43 -3 53 13 12 21 -3
16 -28z m20 -106 c-1 -18 0 -21 7 -9 14 21 25 5 12 -18 -9 -17 -14 -19 -36 -9
-18 9 -21 13 -9 15 11 3 15 11 11 28 -3 16 0 23 7 21 6 -2 10 -15 8 -28z m-2
-188 c0 -4 -12 -6 -26 -3 -14 2 -29 0 -33 -7 -5 -8 -13 -7 -27 4 -17 13 -15
14 34 15 28 0 52 -4 52 -9z"/>
<path d="M2392 1359 c-14 -22 -8 -39 14 -39 15 0 19 27 6 47 -6 9 -11 7 -20
-8z"/>
<path d="M2400 1280 c0 -11 -4 -20 -8 -20 -4 0 -8 -9 -8 -20 0 -12 7 -20 17
-20 11 0 16 10 17 40 1 22 -3 40 -8 40 -6 0 -10 -9 -10 -20z"/>
<path d="M2565 1270 c-4 -7 8 -10 33 -8 22 2 38 6 35 11 -6 11 -61 9 -68 -3z"/>
<path d="M2650 1269 c0 -4 41 -8 91 -7 57 0 86 4 78 9 -17 11 -169 10 -169 -2z"/>
<path d="M1027 1192 c-10 -10 -17 -25 -17 -32 0 -7 -7 -22 -17 -32 -14 -16
-14 -18 0 -18 36 0 47 12 47 51 0 36 1 38 19 27 14 -9 18 -19 15 -38 -5 -22 0
-27 40 -44 46 -19 61 -40 50 -70 -3 -9 -2 -16 4 -16 16 0 22 28 12 56 -6 14
-23 29 -39 35 -18 7 -32 20 -36 36 -7 29 -29 55 -39 46 -3 -4 -6 -1 -6 5 0 17
-15 15 -33 -6z"/>
<path d="M1435 1163 c-11 -27 -25 -42 -45 -50 -22 -8 -30 -18 -30 -37 0 -13 5
-28 11 -31 6 -4 10 -1 8 6 -3 29 1 49 12 49 7 0 9 -10 7 -25 -5 -22 -2 -25 21
-24 23 0 24 1 6 9 -16 7 -11 9 20 9 31 0 36 -2 20 -9 -18 -8 -17 -9 8 -9 16
-1 26 3 23 8 -7 11 39 20 55 10 8 -5 4 -9 -12 -12 -23 -4 -22 -4 4 -6 36 -1
36 25 0 42 -21 9 -27 9 -31 -1 -4 -14 -62 -17 -62 -3 0 5 -9 7 -20 4 -11 -3
-20 0 -20 6 0 6 7 11 16 11 23 0 44 25 44 54 0 41 -19 40 -35 -1z"/>
<path d="M1503 1166 c-1 -30 3 -36 42 -55 33 -16 44 -27 43 -44 0 -12 0 -47 1
-77 1 -48 4 -56 21 -57 11 -1 20 2 20 7 0 15 32 20 48 8 13 -11 15 -10 10 10
-4 15 -2 22 9 22 9 0 13 6 9 15 -3 8 -1 15 4 15 6 0 10 -4 10 -9 0 -5 3 -17 7
-27 5 -13 3 -15 -7 -9 -9 5 -11 4 -6 -4 15 -24 25 2 22 55 -3 43 0 54 10 50 8
-3 14 -3 14 -1 0 11 -69 32 -122 38 -67 6 -98 21 -98 46 0 10 -8 25 -17 34
-17 14 -18 13 -20 -17z m217 -111 c0 -12 -13 -15 -60 -15 -44 0 -60 4 -60 14
0 10 17 14 60 15 47 1 60 -2 60 -14z"/>
<path d="M725 1080 c-4 -6 1 -7 12 -3 17 7 17 5 -1 -22 -11 -17 -28 -36 -38
-43 -10 -7 -16 -18 -13 -23 4 -5 1 -9 -4 -9 -18 0 -12 -38 7 -49 15 -9 15 -10
0 -11 -9 0 -18 6 -21 13 -3 8 -10 6 -21 -8 -18 -24 -20 -35 -5 -35 5 0 7 5 4
10 -4 6 7 10 27 10 22 0 29 -3 19 -9 -11 -7 -11 -9 0 -14 8 -3 0 -6 -18 -6
-25 -1 -31 -5 -27 -16 5 -13 -25 -15 -232 -16 -132 -1 -242 -1 -246 0 -5 0 -8
-3 -8 -8 0 -5 48 -10 108 -12 59 -1 134 -3 167 -4 33 -1 65 2 72 7 6 5 14 5
18 -2 4 -7 12 -7 26 1 11 6 40 9 64 8 24 -2 49 2 57 8 17 14 70 14 65 -1 -4
-11 20 -35 36 -36 4 0 7 16 7 36 0 21 4 33 10 29 6 -3 10 2 10 12 0 10 9 24
20 30 16 11 18 10 13 -3 -4 -12 -1 -15 13 -12 29 5 28 33 -1 46 -36 17 -58 15
-51 -3 8 -21 -3 -45 -21 -45 -10 0 -12 -6 -8 -20 4 -12 2 -20 -5 -20 -6 0 -8
5 -5 10 3 6 -1 10 -10 10 -9 0 -13 5 -10 10 3 6 -1 10 -10 10 -9 0 -15 5 -13
12 3 7 21 12 41 11 36 0 49 10 25 21 -21 8 20 28 65 32 21 1 49 -1 61 -6 20
-8 20 -9 -3 -9 -29 -1 -26 -6 9 -14 22 -5 26 -3 28 17 1 19 -5 25 -29 30 -17
3 -35 3 -40 0 -5 -3 -9 4 -9 15 0 14 6 21 20 21 12 0 20 -7 20 -16 0 -10 6
-14 14 -11 7 3 18 1 24 -5 6 -6 12 -6 17 2 6 9 13 6 27 -11 18 -24 19 -24 33
-5 8 11 15 27 15 35 -1 11 -4 10 -13 -5 -10 -18 -14 -20 -24 -9 -10 11 -10 15
0 19 7 4 -5 4 -26 2 -20 -3 -35 -1 -32 3 2 5 -9 11 -27 15 -39 8 -71 -17 -63
-48 3 -12 2 -16 0 -10 -3 6 -17 9 -30 6 -22 -4 -25 -1 -25 25 0 18 -9 38 -23
51 -26 25 -33 27 -42 12z"/>
<path d="M966 1074 c-7 -17 125 -18 136 -1 5 8 8 6 8 -5 0 -9 -8 -19 -17 -21
-13 -3 -11 -5 6 -6 17 -1 21 -5 17 -17 -3 -9 -6 -18 -6 -20 0 -2 -7 -4 -15 -4
-9 0 -15 -9 -15 -21 0 -18 -4 -20 -30 -14 -20 4 -30 3 -30 -5 0 -9 15 -11 53
-7 32 4 44 3 32 -2 -19 -8 -18 -10 8 -20 38 -15 37 -15 36 17 0 24 -1 25 -9 7
-6 -14 -9 -16 -10 -5 -2 8 -2 18 -1 22 0 4 -6 5 -14 2 -8 -4 -15 -1 -15 5 0 6
7 11 15 11 10 0 15 7 13 18 -2 9 3 16 10 14 10 -2 10 2 0 18 -11 17 -10 22 1
30 21 12 -17 19 -101 18 -45 -1 -69 -6 -72 -14z"/>
<path d="M2591 983 c0 -12 2 -13 6 -5 4 10 8 8 18 -5 15 -20 31 -12 22 12 -9
21 -47 20 -46 -2z"/>
<path d="M1845 972 c-13 -9 -16 -102 -4 -102 6 0 8 -4 5 -9 -3 -4 -17 -7 -30
-6 -18 2 -23 -1 -19 -11 6 -16 69 -19 78 -4 3 6 1 10 -6 10 -8 0 -8 4 1 15 7
8 8 15 2 15 -17 0 -22 42 -6 64 7 11 14 24 14 28 0 10 -22 10 -35 0z"/>
<path d="M1550 950 c0 -5 -8 -10 -17 -11 -15 0 -15 -2 2 -9 19 -8 19 -9 -2 -9
-13 -1 -23 4 -23 9 0 6 -13 10 -29 10 -17 0 -33 -4 -36 -10 -3 -5 -17 -10 -31
-10 -13 0 -24 -3 -24 -7 0 -5 28 -7 62 -6 35 1 74 2 89 3 20 0 25 5 25 25 0
14 -4 25 -8 25 -4 0 -8 -4 -8 -10z"/>
<path d="M900 926 c0 -7 -9 -16 -21 -19 -12 -3 -18 -10 -14 -17 3 -6 3 -10 -2
-9 -4 1 -18 1 -31 0 -19 -1 -22 -5 -17 -21 7 -21 -3 -46 -20 -52 -5 -2 -9 -10
-7 -18 1 -8 3 -50 5 -93 l2 -77 -27 0 c-16 0 -28 -4 -28 -10 0 -5 -13 -10 -30
-10 -33 0 -35 3 -20 29 5 11 6 30 0 47 -8 28 -8 28 -10 -11 -2 -56 -10 -69
-45 -73 -46 -6 -43 -12 6 -13 24 -1 67 -2 95 -3 34 -1 51 2 51 10 0 7 -6 10
-13 7 -6 -2 -15 0 -19 6 -4 7 7 11 29 11 20 0 36 -4 36 -9 0 -5 25 -9 55 -9
36 1 54 5 52 12 -2 6 -19 9 -37 8 -29 -3 -32 -1 -27 17 4 18 1 21 -31 21 -28
0 -33 3 -22 10 13 9 13 10 0 11 -10 0 -8 3 5 9 17 7 17 9 3 9 -28 1 -22 31 6
31 19 0 24 -4 21 -20 -2 -13 2 -20 11 -20 8 0 14 9 14 21 0 17 5 20 28 18 17
-2 36 3 46 14 21 21 21 21 41 1 18 -18 102 -33 92 -17 -4 6 -19 9 -34 7 -25
-4 -26 -3 -8 6 17 9 16 9 -8 5 -19 -4 -26 -2 -22 5 4 7 25 9 53 6 34 -4 40 -3
22 3 -14 5 -50 10 -80 12 -53 2 -54 2 -15 8 22 3 41 12 43 19 1 6 -2 12 -8 12
-5 0 -10 -4 -10 -10 0 -5 -15 -9 -32 -9 -24 1 -27 3 -10 6 27 5 29 19 2 26
-11 3 -20 0 -20 -6 0 -7 -4 -6 -10 3 -7 12 -10 11 -16 -5 -7 -18 -8 -18 -15 1
-6 16 -8 15 -8 -8 -1 -22 4 -28 20 -28 32 0 17 -21 -26 -36 -22 -7 -41 -14
-43 -14 -2 0 -1 15 1 33 2 17 2 24 0 15 -5 -21 -33 -12 -34 11 -1 9 -4 6 -9
-9 -8 -25 -8 -25 -9 -2 -1 28 25 59 32 39 4 -9 7 -9 18 1 21 20 29 14 23 -18
-4 -16 -2 -30 3 -30 5 0 10 16 11 35 2 29 -1 35 -22 41 -16 4 -23 11 -19 20 4
10 26 15 82 16 62 1 66 2 24 5 -53 4 -72 19 -33 25 l21 3 -21 17 c-15 14 -20
15 -20 4z"/>
<path d="M1253 933 c-29 -11 -10 -23 35 -22 26 1 37 4 25 6 -13 2 -23 9 -23
14 0 10 -17 11 -37 2z"/>
<path d="M1640 935 c0 -4 7 -13 15 -21 17 -17 48 -15 37 2 -8 13 -52 29 -52
19z"/>
<path d="M1061 902 c-22 -4 -21 -5 15 -22 l39 -18 -37 -1 c-29 -1 -38 -5 -38
-18 0 -14 2 -15 9 -4 11 18 109 10 122 -10 7 -11 9 -10 9 3 0 15 7 17 43 14
23 -2 34 -2 24 1 -9 2 -15 8 -12 13 3 4 -2 11 -11 14 -8 3 -12 2 -9 -4 3 -6
-5 -10 -19 -10 -30 0 -33 8 -10 25 13 9 13 12 3 13 -8 0 -27 3 -44 5 -16 2
-33 -1 -37 -7 -5 -7 -11 -8 -15 -1 -5 6 -19 9 -32 7z"/>
<path d="M1334 898 c-3 -4 2 -8 10 -8 9 0 16 -4 16 -10 0 -5 11 -10 25 -10 14
0 25 4 25 10 0 5 -7 7 -15 4 -9 -4 -15 0 -15 8 0 14 -38 19 -46 6z"/>
<path d="M2173 805 c0 -44 2 -61 4 -37 2 23 2 59 0 80 -2 20 -4 1 -4 -43z"/>
<path d="M1050 820 c-10 -6 -11 -10 -2 -10 6 0 12 -7 12 -15 0 -8 -6 -15 -12
-15 -9 0 -8 -4 2 -10 8 -5 20 -10 25 -10 6 0 3 5 -5 10 -11 7 -11 10 -2 10 7
0 11 4 7 9 -3 5 3 12 12 14 13 3 12 5 -5 6 -13 0 -20 6 -17 11 8 12 4 12 -15
0z"/>
<path d="M1233 823 c28 -5 35 -17 15 -29 -6 -4 -14 -2 -16 4 -2 7 -20 11 -40
10 l-37 -1 35 -6 c34 -5 34 -5 -15 -11 l-50 -7 55 -2 55 -3 -35 -13 c-19 -7
-46 -14 -60 -15 l-25 -2 25 -7 c30 -9 72 -2 64 10 -3 5 7 9 21 9 15 0 24 4 20
10 -3 6 -1 10 4 10 6 0 10 -10 8 -22 -1 -17 4 -23 18 -24 37 -3 40 -5 20 -14
-19 -8 -19 -9 3 -9 17 -1 22 5 22 24 0 20 -5 24 -22 22 -17 -1 -23 4 -24 21
-1 17 4 22 22 22 15 0 24 6 24 15 0 12 -12 15 -57 14 -32 -1 -46 -4 -30 -6z"/>
<path d="M330 801 c0 -6 15 -11 35 -11 19 0 35 -4 35 -10 0 -5 -8 -10 -18 -10
-38 0 -31 -14 15 -30 35 -12 54 -14 71 -7 27 12 35 6 35 -28 0 -14 3 -25 8
-25 4 0 11 -10 14 -21 4 -12 10 -17 14 -12 3 6 15 13 26 17 11 3 29 19 40 36
11 16 28 30 38 30 13 0 17 8 16 38 l-1 37 -9 -32 -9 -32 -28 29 c-27 28 -32
29 -155 36 -93 5 -127 4 -127 -5z m193 -11 c20 0 37 -4 37 -10 0 -5 -19 -10
-43 -10 -23 0 -57 -4 -75 -9 -30 -9 -32 -8 -32 16 0 24 2 25 38 19 20 -3 54
-6 75 -6z m87 -49 c0 -15 -27 -20 -39 -8 -9 9 -11 4 -6 -20 4 -25 2 -33 -10
-33 -11 0 -15 11 -15 41 0 32 3 40 15 35 8 -3 15 -1 15 5 0 6 7 6 20 -1 11 -6
20 -15 20 -19z"/>
<path d="M1722 745 c0 -25 5 -45 9 -45 5 0 8 20 7 45 0 25 -5 45 -9 45 -5 0
-8 -20 -7 -45z"/>
<path d="M2978 725 c5 -40 -4 -46 -51 -35 -21 4 -37 4 -37 -1 0 -5 12 -11 28
-15 46 -10 49 -14 7 -12 -57 1 -67 -1 -60 -12 4 -6 11 -8 16 -5 5 4 9 -2 9
-11 0 -17 1 -17 13 -1 13 19 76 20 89 2 5 -6 8 -4 8 4 0 8 -8 20 -17 27 -17
13 -17 13 0 14 13 0 17 8 17 34 0 19 -6 36 -13 39 -9 3 -12 -4 -9 -28z"/>
<path d="M700 736 c0 -19 27 -28 33 -11 7 15 -1 25 -20 25 -7 0 -13 -6 -13
-14z"/>
<path d="M177 723 c-4 -3 -25 -6 -47 -5 -22 1 -40 -3 -40 -9 0 -6 9 -8 20 -4
11 3 20 3 20 -2 0 -6 61 -9 89 -4 6 1 -21 31 -29 31 -3 0 -10 -3 -13 -7z"/>
<path d="M2551 723 c-1 -7 -11 -13 -23 -13 -16 0 -19 -3 -10 -9 10 -6 10 -10
-3 -21 -8 -7 -15 -17 -15 -22 0 -6 6 -5 15 2 8 6 19 9 24 5 7 -4 8 0 4 10 -3
10 0 21 7 25 7 4 10 14 7 21 -4 10 -6 10 -6 2z"/>
<path d="M1765 699 c-27 -5 -69 -7 -92 -4 -33 3 -43 0 -43 -11 0 -11 19 -14
93 -14 86 0 93 1 93 20 0 11 0 19 -1 19 0 -1 -22 -5 -50 -10z"/>
<path d="M130 670 c-41 -3 -70 -8 -65 -12 6 -3 28 -5 50 -4 47 3 67 -2 59 -15
-3 -5 1 -9 8 -9 15 0 42 37 30 42 -4 2 -41 1 -82 -2z"/>
<path d="M148 629 c6 -9 9 -19 5 -22 -3 -4 25 -6 63 -5 67 2 67 2 14 5 -32 3
-63 11 -75 21 -16 14 -17 14 -7 1z"/>
<path d="M2939 611 c11 -7 11 -9 0 -14 -8 -3 3 -6 24 -6 34 -1 37 1 23 14 -8
8 -25 15 -38 15 -17 0 -19 -3 -9 -9z"/>
<path d="M2533 603 c-31 -6 -29 -23 2 -23 16 0 25 6 25 15 0 8 -1 14 -2 14 -2
-1 -13 -4 -25 -6z"/>
<path d="M2640 592 c0 -12 78 -14 85 -2 4 6 -12 10 -39 10 -25 0 -46 -4 -46
-8z"/>
<path d="M2810 591 c8 -5 35 -5 60 -1 l45 7 -60 1 c-37 1 -54 -2 -45 -7z"/>
<path d="M5 552 c11 -12 500 -21 511 -9 4 4 -87 7 -202 7 -115 0 -234 3 -264
6 -39 5 -52 3 -45 -4z"/>
<path d="M2840 532 c-63 -3 -113 -22 -57 -22 19 0 27 -5 27 -17 0 -15 2 -15
14 2 11 16 27 19 85 19 39 0 71 3 71 7 0 10 -63 15 -140 11z"/>
<path d="M145 510 c-3 -5 1 -10 9 -10 14 0 16 -19 18 -122 l2 -123 3 120 c5
181 23 169 23 -15 0 -84 2 -151 4 -149 2 2 6 31 9 64 8 85 9 87 17 25 5 -41 7
-22 8 77 l2 132 30 -4 c17 -2 30 1 30 6 0 12 -147 12 -155 -1z"/>
<path d="M2986 489 c-9 -48 -7 -119 4 -119 6 0 10 32 10 75 0 41 -2 75 -4 75
-2 0 -6 -14 -10 -31z"/>
<path d="M2879 508 c-10 -29 -23 -151 -18 -173 4 -16 7 -57 8 -90 1 -40 4 -55
10 -46 7 11 10 7 14 -15 2 -16 5 48 6 143 0 105 -3 174 -9 178 -5 3 -10 5 -11
3z"/>
<path d="M1023 253 c0 -139 4 -253 8 -253 11 0 9 401 -1 460 -5 28 -8 -52 -7
-207z"/>
<path d="M1270 498 c-4 -26 -3 -198 1 -198 3 0 4 -26 3 -57 -2 -32 -1 -50 2
-40 3 9 9 17 13 17 4 0 8 63 10 140 2 122 0 140 -13 140 -9 0 -16 -1 -16 -2z"/>
<path d="M1320 325 c0 -104 4 -175 10 -175 5 0 9 10 8 23 -3 67 3 219 8 214 3
-3 7 -39 9 -81 2 -41 6 -80 10 -86 4 -6 11 -24 15 -38 4 -16 8 36 9 125 1 108
-2 159 -11 173 -19 29 -26 25 -31 -17 l-4 -38 -1 38 c-1 20 -6 37 -12 37 -6 0
-10 -65 -10 -175z"/>
<path d="M260 395 c0 -54 2 -96 4 -94 7 7 9 179 2 186 -3 3 -6 -38 -6 -92z"/>
<path d="M568 478 c-6 -19 -1 -299 6 -306 3 -3 6 67 6 156 0 153 -2 179 -12
150z"/>
<path d="M610 470 c-6 -60 -5 -132 2 -143 5 -7 8 0 9 18 1 17 3 41 3 55 1 14
-1 41 -5 60 -5 29 -7 31 -9 10z"/>
<path d="M722 364 c-2 -110 0 -131 13 -131 13 0 15 21 13 131 -1 101 -3 117
-8 71 l-6 -60 -5 60 c-4 40 -6 16 -7 -71z"/>
<path d="M1472 408 c-1 -63 -6 -88 -14 -88 -10 0 -10 -2 -1 -8 14 -9 13 -129
-1 -151 -6 -10 -6 -16 2 -19 7 -2 8 -12 0 -33 -7 -22 -7 -34 0 -41 20 -20 23
11 19 222 -1 113 -3 166 -5 118z"/>
<path d="M2160 475 c0 -8 -7 -15 -15 -15 -17 0 -21 -16 -5 -22 5 -1 11 -49 14
-106 2 -57 6 -106 9 -109 3 -3 7 56 9 131 2 75 0 136 -4 136 -5 0 -8 -7 -8
-15z"/>
<path d="M2923 410 c0 -47 2 -66 4 -42 2 23 2 61 0 85 -2 23 -4 4 -4 -43z"/>
<path d="M398 259 c-2 -122 0 -226 4 -232 4 -7 8 93 8 221 0 127 -2 232 -5
232 -2 0 -6 -99 -7 -221z"/>
<path d="M484 335 c0 -82 2 -115 3 -72 2 43 2 110 0 150 -1 40 -3 5 -3 -78z"/>
<path d="M2723 353 c-1 -70 3 -113 10 -122 7 -9 8 -12 1 -8 -7 4 -11 -14 -10
-58 1 -36 4 -65 7 -65 9 0 23 237 17 284 -2 20 1 37 6 39 9 3 -15 37 -26 37
-3 0 -5 -48 -5 -107z"/>
<path d="M814 335 c0 -66 1 -92 3 -57 2 34 2 88 0 120 -2 31 -3 3 -3 -63z"/>
<path d="M2784 335 c0 -60 1 -84 3 -52 2 32 2 81 0 110 -2 29 -3 3 -3 -58z"/>
<path d="M2113 370 c0 -36 2 -50 4 -32 2 17 2 47 0 65 -2 17 -4 3 -4 -33z"/>
<path d="M1399 255 c-3 -93 -1 -174 3 -180 4 -5 9 38 9 95 1 58 2 128 3 155 1
28 -1 61 -5 75 -3 14 -8 -51 -10 -145z"/>
<path d="M613 250 c0 -36 2 -50 4 -32 2 17 2 47 0 65 -2 17 -4 3 -4 -33z"/>
<path d="M2841 203 c1 -65 5 -61 12 10 2 26 1 47 -4 47 -5 0 -9 -26 -8 -57z"/>
<path d="M1452 37 c-7 -8 -7 -18 -1 -27 8 -13 10 -13 19 0 21 32 5 55 -18 27z"/>
</g>
</svg>
