<?xml version="1.0" standalone="no"?>
<!DOCTYPE svg PUBLIC "-//W3C//DTD SVG 20010904//EN"
 "http://www.w3.org/TR/2001/REC-SVG-20010904/DTD/svg10.dtd">
<svg version="1.0" xmlns="http://www.w3.org/2000/svg"
 width="225.000000pt" height="225.000000pt" viewBox="0 0 225.000000 225.000000"
 preserveAspectRatio="xMidYMid meet">
<metadata>
Created by potrace 1.10, written by Peter Selinger 2001-2011
</metadata>
<g transform="translate(0.000000,225.000000) scale(0.100000,-0.100000)"
fill="#000000" stroke="none">
<path d="M333 1770 c-24 -10 -53 -58 -53 -89 0 -11 12 -33 26 -50 l26 -31 793
0 793 0 26 31 c14 17 26 39 26 50 0 33 -29 79 -56 89 -32 13 -1551 12 -1581 0z
m1565 -46 c24 -17 29 -53 10 -72 -17 -17 -1549 -17 -1566 0 -17 17 -15 54 4
72 14 14 98 16 772 16 670 0 760 -2 780 -16z"/>
<path d="M335 1206 c-29 -13 -55 -51 -55 -82 0 -28 28 -70 55 -82 37 -17 1543
-17 1580 0 27 12 55 54 55 83 0 32 -30 73 -61 84 -50 17 -1534 15 -1574 -3z
m1569 -45 c24 -20 17 -63 -14 -78 -36 -18 -1494 -18 -1530 0 -47 24 -35 82 18
90 15 2 360 4 768 3 623 -1 744 -3 758 -15z"/>
<path d="M312 628 c-11 -13 -23 -35 -27 -49 -9 -35 18 -87 51 -99 34 -13 1544
-13 1578 0 33 12 60 64 51 99 -4 14 -16 36 -27 49 l-21 22 -792 0 -792 0 -21
-22z m1596 -30 c17 -17 15 -54 -4 -72 -14 -14 -98 -16 -775 -16 -505 0 -767 3
-780 10 -22 12 -26 59 -7 78 17 17 1549 17 1566 0z"/>
</g>
</svg>
