<?xml version="1.0" standalone="no"?>
<!DOCTYPE svg PUBLIC "-//W3C//DTD SVG 20010904//EN"
 "http://www.w3.org/TR/2001/REC-SVG-20010904/DTD/svg10.dtd">
<svg version="1.0" xmlns="http://www.w3.org/2000/svg"
 width="300.000000pt" height="89.000000pt" viewBox="0 0 300.000000 89.000000"
 preserveAspectRatio="xMidYMid meet">
<metadata>
Created by potrace 1.10, written by Peter Selinger 2001-2011
</metadata>
<g transform="translate(0.000000,89.000000) scale(0.100000,-0.100000)"
fill="#000000" stroke="none">
<path d="M64 858 c-42 -20 -44 -43 -44 -419 l0 -361 29 -29 29 -29 1416 0
c1016 0 1422 3 1439 11 14 6 30 22 36 36 7 16 11 140 11 378 0 238 -4 362 -11
378 -6 14 -22 30 -36 36 -33 15 -2838 14 -2869 -1z m2862 -43 l24 -24 0 -346
0 -346 -25 -24 -24 -25 -1401 0 -1401 0 -25 25 -25 25 3 351 3 351 24 19 c23
18 60 19 1423 19 l1399 0 25 -25z"/>
<path d="M960 769 c-70 -28 -97 -95 -61 -152 25 -42 69 -62 113 -53 18 3 39 6
46 5 24 -2 97 0 141 3 56 5 78 31 72 91 -1 9 3 17 8 17 6 0 11 -8 11 -19 0
-31 21 -79 36 -85 9 -3 24 -1 34 4 14 7 25 7 39 -2 17 -10 23 -9 40 6 11 10
23 28 27 39 6 18 9 17 39 -19 29 -35 37 -38 76 -37 24 2 80 4 125 5 105 4 114
12 114 94 0 51 -4 68 -20 84 -16 16 -24 18 -40 10 -11 -6 -26 -8 -32 -4 -11 7
-83 14 -150 15 -15 0 -38 -7 -52 -16 -23 -15 -27 -15 -50 0 -33 22 -126 22
-159 0 -22 -14 -26 -14 -37 0 -10 12 -35 15 -111 15 -54 0 -101 -4 -104 -10
-4 -6 -17 -4 -35 5 -33 17 -36 17 -70 4z m69 -38 c22 -14 4 -33 -20 -20 -24
12 -69 -12 -69 -37 0 -43 32 -64 74 -48 25 9 19 24 -9 24 -16 0 -25 6 -25 15
0 11 11 15 40 15 33 0 40 -4 40 -19 0 -27 -30 -59 -62 -67 -22 -5 -33 0 -58
24 -36 37 -38 65 -5 97 25 25 68 33 94 16z m131 -7 c0 -12 -7 -15 -30 -12 -24
4 -30 1 -30 -14 0 -13 8 -18 31 -18 20 0 29 -4 26 -12 -2 -8 -15 -12 -30 -10
-22 3 -27 -1 -27 -17 0 -17 6 -21 30 -21 17 0 30 -4 30 -10 0 -5 -19 -10 -43
-10 l-43 0 -1 70 -1 70 44 0 c34 0 44 -4 44 -16z m110 1 c0 -9 -9 -15 -21 -15
-20 0 -21 -4 -17 -55 4 -45 2 -55 -11 -55 -13 0 -15 10 -13 55 4 50 2 55 -17
55 -12 0 -21 6 -21 15 0 11 12 15 50 15 38 0 50 -4 50 -15z m80 -55 c0 -40 -4
-70 -10 -70 -6 0 -10 30 -10 70 0 40 4 70 10 70 6 0 10 -30 10 -70z m120 55
c0 -8 -9 -15 -20 -15 -18 0 -20 -7 -20 -55 0 -42 -3 -55 -15 -55 -12 0 -15 13
-15 55 0 42 -3 55 -15 55 -8 0 -15 7 -15 15 0 11 12 15 50 15 38 0 50 -4 50
-15z m167 -7 c43 -40 21 -109 -39 -124 -22 -5 -34 0 -59 25 -25 25 -30 37 -25
59 14 59 80 81 123 40z m95 -26 l27 -47 1 48 c0 35 4 47 15 47 12 0 15 -14 15
-70 0 -86 -16 -92 -57 -22 l-28 47 -3 -47 c-2 -29 -8 -48 -15 -48 -8 0 -11 20
-9 70 4 84 16 89 54 22z"/>
<path d="M1557 702 c-32 -35 -15 -82 28 -82 12 0 26 5 33 12 19 19 15 66 -7
78 -27 14 -35 13 -54 -8z"/>
<path d="M238 739 c-10 -5 -24 -25 -33 -43 -14 -28 -16 -70 -13 -269 l3 -237
27 -27 c47 -46 76 -39 248 60 79 46 194 107 201 107 4 0 26 17 48 38 80 75 45
145 -106 218 -95 46 -195 104 -205 118 -4 6 -8 7 -8 3 0 -4 -17 4 -37 18 -39
26 -94 33 -125 14z m243 -110 c253 -146 249 -143 249 -183 0 -18 -7 -39 -15
-46 -42 -34 -411 -240 -432 -240 -12 0 -32 9 -43 20 -19 19 -20 33 -20 265 0
232 1 246 20 265 11 11 31 20 44 20 13 0 102 -45 197 -101z"/>
<path d="M340 586 c0 -4 28 -37 62 -72 l62 -64 48 47 c26 26 45 49 43 52 -3 2
-22 -12 -43 -32 -21 -20 -42 -37 -47 -37 -5 0 -35 26 -67 57 -32 32 -58 54
-58 49z"/>
<path d="M435 408 l-30 -30 33 23 32 23 28 -29 c15 -17 36 -37 47 -44 11 -8
-2 8 -30 37 -27 29 -49 52 -50 51 0 0 -13 -14 -30 -31z"/>
<path d="M1000 542 c-63 -29 -116 -95 -123 -156 -10 -77 41 -161 114 -190 56
-22 97 -20 156 9 l51 26 37 -26 c47 -31 102 -33 138 -5 31 25 39 25 79 0 41
-25 78 -25 127 -1 l37 20 -4 -30 c-3 -20 2 -37 14 -51 50 -56 138 -54 189 5
45 51 83 67 120 51 41 -18 70 -17 111 2 45 21 60 49 44 79 -10 19 -9 27 5 49
17 25 17 27 -9 61 -36 47 -60 58 -116 53 l-47 -5 -9 41 c-6 28 -17 45 -36 56
-25 13 -29 13 -52 -9 -14 -13 -28 -36 -31 -52 -6 -27 -9 -29 -58 -29 -35 0
-63 -7 -85 -20 l-34 -21 -32 21 c-42 25 -102 26 -144 0 -32 -20 -32 -20 -65 0
-38 23 -101 26 -137 5 -29 -17 -40 -18 -58 -6 -10 6 -11 13 -1 34 10 23 9 30
-7 48 -10 12 -31 27 -46 35 -28 14 -102 18 -128 6z m130 -47 c33 -17 37 -27
17 -43 -8 -7 -19 -6 -37 3 -71 40 -149 -9 -150 -93 0 -93 106 -138 171 -73 43
43 38 54 -21 49 -47 -5 -50 -4 -50 18 0 23 3 24 71 24 l72 0 -6 -42 c-10 -77
-58 -118 -138 -118 -118 0 -188 133 -121 228 41 57 130 79 192 47z m750 -135
c0 -139 0 -140 -22 -140 -23 0 -23 2 -25 140 l-1 140 24 0 24 0 0 -140z m-810
62 c0 -5 -9 -17 -20 -27 -22 -20 -26 -55 -8 -73 9 -9 8 -12 -5 -12 -37 0 -49
68 -17 100 20 20 50 27 50 12z m280 -27 c88 -45 56 -175 -42 -175 -99 0 -133
128 -47 176 32 18 54 17 89 -1z m209 1 c54 -28 66 -97 25 -145 -55 -65 -164
-26 -164 58 0 78 70 122 139 87z m224 4 l29 0 -4 -111 c-3 -107 -4 -112 -31
-135 -16 -13 -41 -24 -57 -24 -31 0 -94 46 -84 61 7 12 44 12 44 -1 0 -5 11
-12 25 -16 31 -8 65 19 65 50 0 15 -3 17 -12 8 -21 -21 -77 -14 -103 13 -61
60 -6 176 75 159 14 -3 38 -5 53 -4z m256 -16 c17 -14 31 -32 31 -39 0 -7 -27
-24 -60 -37 -33 -12 -60 -26 -60 -30 0 -4 9 -12 21 -18 16 -9 26 -8 44 4 23
15 55 13 55 -5 0 -17 -46 -39 -83 -39 -83 0 -119 99 -58 161 36 36 70 37 110
3z"/>
<path d="M1278 358 c-30 -24 -31 -56 -4 -83 30 -30 40 -31 66 -5 25 25 26 62
2 83 -22 20 -42 21 -64 5z"/>
<path d="M1474 345 c-32 -50 11 -106 63 -82 18 8 32 33 33 60 0 15 -41 47 -60
47 -11 0 -27 -11 -36 -25z"/>
<path d="M1687 352 c-25 -28 -21 -69 8 -88 23 -15 27 -15 50 0 30 20 34 65 7
89 -24 22 -45 21 -65 -1z"/>
<path d="M1956 354 c-16 -15 -21 -34 -11 -34 20 0 75 31 70 40 -9 15 -41 12
-59 -6z"/>
<path d="M2145 515 c-24 -23 -25 -30 -25 -148 0 -111 2 -127 21 -151 37 -47
89 -27 104 42 5 24 12 32 28 32 12 0 29 4 37 10 18 11 30 -5 30 -40 0 -47 26
-70 78 -70 26 0 80 -1 120 -1 69 -1 72 -2 72 -24 0 -13 11 -32 26 -44 24 -19
29 -19 53 -6 27 13 67 89 121 225 l20 51 -25 24 c-29 30 -45 31 -73 5 -26 -24
-26 -24 -59 -3 -25 16 -81 24 -175 23 -34 -1 -38 2 -38 23 0 26 -41 77 -62 77
-7 0 -21 -7 -31 -14 -16 -12 -24 -12 -52 0 -19 8 -59 14 -90 14 -46 0 -60 -4
-80 -25z m180 -40 c17 -16 25 -35 25 -60 0 -54 -36 -85 -98 -85 l-49 0 5 -55
c4 -54 4 -55 -22 -55 l-26 0 0 140 0 140 70 0 c62 0 74 -3 95 -25z m95 -115
c0 -139 0 -140 -22 -140 -23 0 -23 1 -23 140 0 139 0 140 23 140 22 0 22 -1
22 -140z m156 27 c23 -20 27 -33 32 -95 4 -68 3 -72 -16 -72 -11 0 -22 6 -25
13 -4 10 -7 10 -18 0 -23 -23 -77 -16 -95 12 -35 53 11 103 83 92 24 -4 31 -2
26 8 -8 22 -43 29 -69 14 -20 -10 -27 -10 -37 0 -9 10 -7 16 12 32 31 26 74
24 107 -4z m99 -42 c11 -30 22 -55 27 -55 4 0 15 25 24 55 16 49 21 55 45 55
l28 0 -38 -82 c-21 -46 -46 -104 -56 -130 -14 -39 -22 -48 -41 -48 -29 0 -29
1 -4 51 l21 39 -36 82 c-19 45 -35 83 -35 85 0 2 11 3 23 3 20 0 27 -9 42 -55z"/>
<path d="M2205 415 l-1 -45 41 0 c46 0 65 14 65 45 0 31 -19 45 -64 45 l-41 0
0 -45z"/>
<path d="M2495 296 c-16 -12 -17 -16 -6 -30 17 -21 23 -20 55 5 21 17 25 24
14 30 -19 13 -42 11 -63 -5z"/>
</g>
</svg>
