<?xml version="1.0" standalone="no"?>
<!DOCTYPE svg PUBLIC "-//W3C//DTD SVG 20010904//EN"
 "http://www.w3.org/TR/2001/REC-SVG-20010904/DTD/svg10.dtd">
<svg version="1.0" xmlns="http://www.w3.org/2000/svg"
 width="200.000000pt" height="200.000000pt" viewBox="0 0 200.000000 200.000000"
 preserveAspectRatio="xMidYMid meet">
<metadata>
Created by potrace 1.10, written by Peter Selinger 2001-2011
</metadata>
<g transform="translate(0.000000,200.000000) scale(0.100000,-0.100000)"
fill="#000000" stroke="none">
<path d="M652 1484 c-43 -30 -30 -58 128 -274 83 -113 150 -207 150 -210 0 -3
-68 -97 -150 -209 -82 -112 -152 -211 -155 -219 -10 -25 22 -62 54 -62 26 0
42 18 152 167 67 91 132 181 145 200 l22 33 142 -195 c78 -107 151 -200 162
-206 28 -15 68 13 68 47 0 18 -47 91 -146 227 -80 110 -148 205 -150 211 -2 6
61 100 140 208 80 108 150 206 156 218 17 31 -11 70 -50 70 -26 0 -43 -19
-172 -195 -78 -107 -145 -195 -148 -195 -3 0 -68 86 -144 190 -117 162 -158
210 -178 210 -2 0 -14 -7 -26 -16z m110 -131 c35 -49 93 -128 128 -177 78
-107 100 -125 133 -103 13 8 70 79 127 158 127 176 153 209 163 209 20 0 -4
-41 -128 -210 -74 -102 -138 -195 -141 -207 -3 -13 -3 -33 0 -45 3 -13 67
-106 141 -208 127 -174 148 -210 126 -210 -5 0 -69 81 -141 180 -72 99 -140
185 -151 191 -33 17 -58 -8 -195 -196 -70 -96 -131 -175 -136 -175 -22 0 3 42
132 219 101 140 140 201 140 221 0 19 -26 64 -82 142 -44 62 -107 150 -140
194 -56 78 -68 104 -49 104 4 0 37 -39 73 -87z"/>
</g>
</svg>
