<?xml version="1.0" standalone="no"?>
<!DOCTYPE svg PUBLIC "-//W3C//DTD SVG 20010904//EN"
 "http://www.w3.org/TR/2001/REC-SVG-20010904/DTD/svg10.dtd">
<svg version="1.0" xmlns="http://www.w3.org/2000/svg"
 width="225.000000pt" height="225.000000pt" viewBox="0 0 225.000000 225.000000"
 preserveAspectRatio="xMidYMid meet">
<metadata>
Created by potrace 1.10, written by Peter Selinger 2001-2011
</metadata>
<g transform="translate(0.000000,225.000000) scale(0.100000,-0.100000)"
fill="#000000" stroke="none">
<path d="M968 2095 c-228 -56 -418 -222 -497 -435 -32 -87 -42 -147 -42 -250 1 -157 43 -288 134 -410 71 -95 556 -661 564 -658 10 3 506 586 560 658 139 187 174 438 92 660 -80 215 -270 380 -501 435 -78 18 -234 18 -310 0z m326 -45 c235 -60 420 -253 477 -498 17 -72 14 -227 -5 -301 -22 -80 -72 -182 -123 -246 -46 -58 -515 -610 -518 -610 -3 0 -472 552 -518 610 -51 64 -101 166 -122 246 -19 73 -22 229 -6 301 55 242 241 437 473 498 100 26 241 26 342 0z"/>
<path d="M1024 1750 c-50 -15 -125 -71 -161 -118 -69 -91 -82 -236 -30 -337 33 -64 99 -128 162 -157 70 -32 190 -32 260 0 63 29 129 92 163 157 23 43 27 62 27 140 0 78 -4 97 -28 147 -31 62 -84 116 -149 149 -48 25 -188 36 -244 19z m200 -42 c53 -16 134 -92 162 -153 63 -134 4 -303 -130 -373 -43 -22 -64 -27 -131 -27 -67 0 -88 5 -131 27 -134 70 -193 239 -130 373 20 43 113 144 135 145 3 1 29 7 56 15 51 15 101 13 169 -7z"/>
<path d="M723 519 c-219 -58 -296 -145 -210 -237 44 -47 152 -90 300 -119 131 -26 493 -26 624 0 189 37 291 86 329 160 13 24 13 31 -1 61 -28 59 -115 105 -262 141 -59 14 -76 15 -88 5 -23 -19 -18 -30 15 -30 38 0 205 -54 247 -79 18 -11 39 -32 49 -46 15 -23 15 -27 0 -50 -19 -29 -87 -66 -177 -94 -217 -69 -631 -69 -848 0 -90 28 -158 65 -177 94 -15 23 -15 27 0 50 10 14 31 35 49 46 42 25 209 79 247 79 32 0 37 9 18 28 -16 16 -29 15 -115 -9z"/>
</g>
</svg>
