<?xml version="1.0" standalone="no"?>
<!DOCTYPE svg PUBLIC "-//W3C//DTD SVG 20010904//EN"
 "http://www.w3.org/TR/2001/REC-SVG-20010904/DTD/svg10.dtd">
<svg version="1.0" xmlns="http://www.w3.org/2000/svg"
 width="225.000000pt" height="225.000000pt" viewBox="0 0 225.000000 225.000000"
 preserveAspectRatio="xMidYMid meet">
<metadata>
Created by potrace 1.10, written by Peter Selinger 2001-2011
</metadata>
<g transform="translate(0.000000,225.000000) scale(0.100000,-0.100000)"
fill="#000000" stroke="none">
<path d="M398 1860 c-105 -18 -200 -97 -239 -200 -18 -47 -19 -81 -19 -535 0 -454 1 -488 19 -535 30 -78 81 -134 159 -172 l67 -33 740 0 740 0 67 33 c78 38 129 94 159 172 18 47 19 81 19 535 0 454 -1 488 -19 535 -30 78 -81 134 -159 172 l-67 33 -710 2 c-390 0 -731 -3 -757 -7z m-10 -53 c-54 -15 -128 -75 -163 -131 l-30 -49 -5 -216 -6 -216 -2 207 c-2 189 0 210 19 255 22 52 47 83 93 116 32 23 93 47 116 45 8 0 -2 -5 -22 -11z m1540 -16 c50 -26 96 -76 121 -131 19 -41 20 -63 19 -255 l-2 -210 -6 215 c-5 210 -6 216 -32 260 -32 54 -59 80 -118 114 -52 30 -37 35 18 7z m-31 -42 c51 -25 96 -76 112 -128 16 -53 16 -939 0 -992 -16 -52 -61 -103 -112 -128 -43 -21 -53 -21 -770 -21 -588 0 -734 3 -760 13 -50 21 -93 63 -116 112 -20 44 -21 57 -21 511 0 321 4 479 11 505 16 52 60 102 111 128 43 21 50 21 772 21 720 0 730 0 773 -21z m157 -1142 c-18 -53 -71 -120 -113 -141 -49 -25 -76 -27 -31 -2 58 31 83 55 117 113 28 48 28 50 33 263 l5 215 3 -199 c2 -164 -1 -208 -14 -249z m-1832 -27 c32 -54 59 -80 118 -114 25 -14 40 -26 33 -26 -54 0 -145 81 -173 156 -18 49 -20 75 -18 252 l2 197 5 -210 c6 -205 7 -211 33 -255z"/> <path d="M392 1614 c-47 -32 -33 -51 209 -285 l231 -223 -44 -40 c-199 -186 -418 -401 -418 -411 0 -21 29 -45 53 -45 14 1 61 38 124 98 56 53 158 150 226 214 l123 117 105 -99 c60 -58 112 -99 124 -99 12 0 64 41 125 99 58 55 106 100 108 100 3 0 51 -46 325 -311 59 -57 119 -108 133 -114 32 -12 58 3 62 36 2 19 -25 50 -145 163 -81 77 -185 175 -230 217 l-82 78 230 222 c169 163 229 228 229 245 0 29 -37 56 -59 44 -9 -5 -170 -157 -356 -339 l-340 -330 -100 97 c-55 54 -208 202 -339 330 -132 128 -247 237 -256 242 -11 6 -24 4 -38 -6z m273 -269 c459 -446 442 -431 472 -421 20 7 76 60 605 575 43 41 80 72 83 69 3 -3 -91 -102 -210 -219 -165 -164 -215 -220 -215 -239 -1 -20 47 -71 217 -237 120 -117 213 -212 207 -213 -5 0 -99 84 -208 188 -217 205 -245 227 -275 217 -12 -3 -63 -46 -116 -96 -52 -49 -97 -89 -100 -89 -3 0 -48 40 -100 89 -53 50 -105 93 -116 96 -11 4 -30 0 -43 -8 -13 -9 -114 -102 -225 -207 -111 -106 -205 -189 -209 -185 -7 7 69 81 282 279 54 50 109 106 122 125 21 31 22 37 9 60 -7 15 -106 118 -219 229 -113 111 -206 204 -206 208 0 14 32 -14 245 -221z"/>
</g>
</svg>
