<?xml version="1.0" standalone="no"?>
<!DOCTYPE svg PUBLIC "-//W3C//DTD SVG 20010904//EN"
 "http://www.w3.org/TR/2001/REC-SVG-20010904/DTD/svg10.dtd">
<svg version="1.0" xmlns="http://www.w3.org/2000/svg"
 width="159.000000pt" height="148.000000pt" viewBox="0 0 159.000000 148.000000"
 preserveAspectRatio="xMidYMid meet">
<metadata>
Created by potrace 1.10, written by Peter Selinger 2001-2011
</metadata>
<g transform="translate(0.000000,148.000000) scale(0.100000,-0.100000)"
fill="#000000" stroke="none">
<path d="M842 1469 c2 -7 37 -20 78 -31 219 -56 411 -208 508 -403 30 -62 54 -129 72 -202 11 -46 40 -64 67 -42 39 33 -19 228 -109 366 -85 130 -228 255 -352 307 -50 21 -59 20 -46 -4 14 -26 5 -26 -62 0 -58 22 -162 28 -156 9z"/>
<path d="M230 1424 c-41 -28 -139 -126 -178 -179 l-37 -50 0 -120 c1 -110 4 -127 33 -203 112 -298 374 -604 658 -772 131 -77 251 -123 206 -78 -26 26 -9 27 57 3 89 -32 237 -36 279 -7 51 35 55 36 43 14 -14 -27 -14 -32 2 -32 7 0 52 40 99 88 93 94 107 125 93 199 -5 30 -31 62 -138 169 -110 111 -138 134 -170 140 -63 11 -105 -9 -184 -87 l-73 -71 -83 55 c-96 64 -238 207 -301 304 l-45 68 63 65 c35 36 71 76 80 90 19 29 21 105 3 136 -20 35 -209 229 -251 258 -46 31 -117 35 -156 10z m217 -187 c87 -87 123 -130 123 -146 0 -16 -27 -50 -85 -108 -47 -46 -85 -92 -85 -101 0 -35 69 -150 145 -241 121 -143 316 -291 385 -291 15 0 52 28 104 80 62 60 89 80 109 80 21 0 52 -24 138 -111 61 -61 114 -120 118 -132 12 -31 -7 -62 -86 -138 -111 -109 -147 -118 -297 -74 -269 78 -564 309 -753 590 -124 185 -196 409 -164 507 14 42 179 208 207 208 10 0 73 -55 141 -123z"/>
<path d="M835 1230 c-28 -31 -8 -65 42 -73 144 -23 287 -167 335 -337 11 -37 18 -46 39 -48 42 -5 54 20 40 80 -27 120 -113 244 -214 312 -46 30 -185 86 -215 86 -5 0 -17 -9 -27 -20z"/>
</g>
</svg>
