<?xml version="1.0" standalone="no"?>
<!DOCTYPE svg PUBLIC "-//W3C//DTD SVG 20010904//EN"
 "http://www.w3.org/TR/2001/REC-SVG-20010904/DTD/svg10.dtd">
<svg version="1.0" xmlns="http://www.w3.org/2000/svg"
 width="158.000000pt" height="148.000000pt" viewBox="0 0 158.000000 148.000000"
 preserveAspectRatio="xMidYMid meet">
<metadata>
Created by potrace 1.10, written by Peter Selinger 2001-2011
</metadata>
<g transform="translate(0.000000,148.000000) scale(0.100000,-0.100000)"
fill="#000000" stroke="none">
<path d="M685 1454 c-40 -34 -141 -90 -195 -109 -67 -24 -187 -45 -255 -45 -39 0 -69 -6 -83 -16 -22 -15 -22 -19 -22 -237 0 -309 19 -448 84 -607 70 -176 212 -328 384 -414 30 -15 56 -25 58 -23 13 12 -15 40 -75 76 -240 145 -368 362 -401 678 -5 49 -10 177 -10 285 0 224 -4 213 85 217 178 7 345 70 458 170 52 47 26 70 -28 25z"/>
<path d="M840 1466 c0 -40 177 -146 300 -180 30 -8 100 -20 154 -25 60 -6 103 -15 108 -23 15 -22 3 -492 -16 -584 -51 -256 -161 -426 -359 -554 -118 -77 -149 -127 -46 -75 194 97 339 267 407 475 45 136 54 214 59 491 6 324 15 303 -133 312 -54 3 -126 13 -159 22 -78 21 -188 74 -247 119 -50 39 -68 44 -68 22z"/>
<path d="M692 1376 c-105 -70 -210 -110 -342 -131 -79 -12 -111 -22 -128 -38 l-24 -22 5 -250 c4 -213 7 -262 26 -333 49 -193 155 -350 313 -465 55 -40 218 -117 248 -117 31 0 171 66 238 112 104 71 203 181 255 284 72 143 97 284 97 560 0 258 7 245 -150 269 -132 21 -237 61 -342 131 -45 30 -89 54 -98 54 -9 0 -53 -24 -98 -54z m150 -17 c103 -81 250 -139 406 -160 l94 -12 -5 -246 c-5 -285 -17 -353 -93 -509 -73 -151 -216 -278 -396 -352 l-58 -24 -57 24 c-160 65 -316 196 -381 317 -89 168 -112 286 -112 579 l0 211 96 13 c154 21 321 89 414 169 19 17 36 30 38 31 1 0 26 -18 54 -41z"/>
<path d="M855 800 l-140 -140 -65 65 c-66 65 -85 74 -121 55 -41 -23 -24 -60 73 -157 57 -59 99 -93 112 -93 14 0 78 57 189 168 170 170 188 197 155 230 -32 32 -61 14 -203 -128z m165 79 c0 -18 -273 -289 -298 -296 -20 -5 -36 6 -93 63 -60 60 -83 94 -63 94 4 0 33 -25 66 -55 32 -30 68 -55 80 -55 13 0 69 48 153 130 124 121 155 146 155 119z"/>
</g>
</svg>
