<?xml version="1.0" standalone="no"?>
<!DOCTYPE svg PUBLIC "-//W3C//DTD SVG 20010904//EN"
 "http://www.w3.org/TR/2001/REC-SVG-20010904/DTD/svg10.dtd">
<svg version="1.0" xmlns="http://www.w3.org/2000/svg"
 width="300.000000pt" height="300.000000pt" viewBox="0 0 300.000000 300.000000"
 preserveAspectRatio="xMidYMid meet">
<metadata>
Created by potrace 1.10, written by Peter Selinger 2001-2011
</metadata>
<g transform="translate(0.000000,300.000000) scale(0.100000,-0.100000)"
fill="#000000" stroke="none">
<path d="M1713 2938 c-6 -7 -21 -41 -34 -75 -18 -49 -29 -63 -49 -68 -14 -3
-55 -20 -92 -37 l-66 -30 -57 26 c-32 14 -67 26 -79 26 -15 0 -55 -33 -119
-99 -53 -54 -97 -101 -97 -103 0 -3 14 -36 31 -72 l31 -67 -30 -67 c-17 -37
-34 -79 -37 -94 -6 -23 -18 -31 -71 -48 -89 -30 -94 -40 -94 -183 0 -65 4
-127 10 -137 5 -10 40 -29 76 -42 36 -12 69 -30 71 -38 3 -8 21 -52 40 -96
l34 -82 -31 -66 c-16 -37 -30 -69 -30 -73 0 -15 195 -203 211 -203 9 0 46 13
82 29 54 24 68 27 84 17 23 -16 122 -58 143 -61 8 -1 28 -33 45 -76 l31 -74
140 -3 c161 -3 158 -4 190 87 13 38 26 57 44 64 14 5 57 24 95 41 l70 32 55
-27 c30 -15 64 -28 75 -28 24 -1 215 186 215 209 -1 8 -13 42 -29 75 l-27 60
33 72 c18 39 33 78 33 86 0 20 16 31 75 52 85 31 85 30 85 179 0 72 -4 137 -8
143 -4 7 -39 25 -76 41 -63 25 -70 31 -81 67 -6 22 -23 62 -37 89 l-25 50 28
64 c16 35 29 71 29 79 0 24 -180 203 -204 203 -12 0 -49 -12 -83 -26 l-61 -26
-56 26 c-30 15 -72 32 -92 39 -33 11 -40 19 -63 82 l-27 70 -146 3 c-108 2
-148 -1 -155 -10z m300 -83 c16 -32 36 -65 45 -72 15 -12 59 -35 72 -37 3 -1
30 -12 61 -24 61 -25 78 -24 162 12 l39 17 84 -82 c46 -46 84 -90 84 -100 0
-9 -9 -38 -21 -64 -25 -58 -22 -84 22 -190 34 -79 35 -80 99 -112 47 -23 66
-39 71 -57 10 -37 5 -214 -6 -224 -6 -5 -31 -17 -57 -27 -57 -21 -76 -41 -99
-103 -10 -26 -26 -68 -36 -94 -15 -41 -16 -52 -4 -80 7 -18 18 -50 24 -71 l11
-37 -79 -81 c-89 -89 -92 -90 -185 -53 l-46 17 -97 -37 c-99 -39 -125 -60
-142 -116 -19 -66 -27 -70 -138 -70 -139 0 -142 2 -167 67 -23 62 -47 86 -105
103 -22 7 -57 21 -77 31 -47 24 -69 24 -120 -1 -23 -11 -52 -20 -64 -20 -22 0
-155 115 -174 151 -7 13 -3 37 16 87 l25 69 -36 89 c-42 102 -64 130 -114 145
-74 22 -75 24 -73 181 l2 98 42 20 c23 11 47 20 53 20 20 0 53 44 75 100 11
30 27 69 36 87 16 35 15 52 -8 104 -34 77 -35 73 44 152 105 105 99 102 150
79 80 -35 91 -35 185 4 99 40 129 64 138 105 4 15 16 40 27 54 20 25 22 26
136 23 l117 -3 28 -60z"/>
<path d="M1759 2872 c-9 -9 -24 -38 -34 -64 -16 -43 -23 -49 -69 -67 -28 -10
-80 -33 -115 -49 l-63 -31 -50 20 c-76 30 -92 26 -158 -37 -33 -31 -62 -65
-65 -75 -4 -10 3 -39 14 -65 27 -59 26 -85 -2 -137 -12 -23 -28 -60 -35 -82
-23 -70 -33 -83 -81 -100 -71 -26 -81 -43 -81 -140 0 -93 5 -102 88 -140 47
-22 50 -25 76 -101 16 -44 35 -88 42 -99 20 -27 17 -65 -7 -119 -20 -45 -20
-48 -3 -74 9 -15 40 -49 68 -75 56 -53 64 -54 148 -21 l46 18 66 -33 c36 -18
85 -38 109 -44 36 -11 45 -19 67 -64 42 -87 52 -93 141 -93 92 0 119 17 142
90 14 43 18 46 83 71 38 14 88 35 111 47 52 27 54 27 105 2 70 -34 95 -26 176
57 48 50 50 64 21 143 l-21 58 27 48 c15 27 35 74 44 104 15 51 20 57 71 83
80 40 90 55 90 142 0 64 -3 77 -25 103 -13 16 -38 32 -54 35 -37 8 -68 38 -77
74 -4 16 -22 62 -41 104 l-34 75 21 48 c32 77 28 92 -45 163 -71 70 -74 70
-158 34 l-47 -20 -45 23 c-25 14 -74 34 -109 46 -70 23 -76 28 -96 80 -27 71
-43 80 -139 79 -67 0 -90 -4 -102 -17z m206 -59 c29 -78 40 -90 102 -108 32
-9 82 -30 112 -46 67 -35 77 -36 143 -3 l53 25 62 -60 63 -59 -30 -64 -30 -64
34 -67 c18 -37 41 -91 50 -121 20 -64 23 -67 96 -94 l55 -20 3 -85 c3 -81 2
-86 -20 -92 -13 -4 -44 -16 -70 -27 -44 -19 -48 -24 -63 -76 -9 -31 -32 -86
-51 -124 l-34 -68 29 -64 29 -64 -60 -60 -60 -60 -64 29 -63 29 -62 -31 c-34
-17 -91 -41 -127 -53 l-65 -21 -25 -68 -25 -68 -85 3 -84 3 -20 55 c-26 70
-41 86 -86 95 -20 3 -74 24 -118 46 l-82 40 -60 -30 -60 -30 -62 62 -62 62 26
53 c33 66 32 76 -3 143 -16 30 -37 80 -46 112 -18 62 -30 73 -108 102 l-48 18
3 85 3 86 60 23 c68 26 80 39 90 91 3 20 22 68 41 106 19 38 34 75 34 82 0 8
-12 39 -27 69 l-27 55 60 61 61 61 57 -26 c31 -14 63 -26 72 -26 8 0 45 16 83
35 38 19 90 39 115 46 50 12 63 28 86 107 l13 42 87 0 87 0 18 -47z"/>
<path d="M1751 2484 c-133 -36 -240 -125 -299 -251 -34 -74 -36 -83 -36 -183
0 -85 4 -116 22 -161 56 -140 171 -242 318 -279 92 -24 119 -24 201 -5 86 20
145 50 202 101 157 141 199 361 104 548 -31 61 -114 150 -172 184 -97 57 -232
75 -340 46z m257 -46 c125 -47 237 -173 263 -296 72 -350 -273 -623 -594 -472
-183 86 -275 313 -209 515 30 93 121 194 219 244 81 41 225 45 321 9z"/>
<path d="M1792 2429 c-121 -23 -230 -110 -284 -225 -25 -54 -31 -79 -32 -142
-1 -90 16 -157 50 -197 21 -25 27 -27 47 -16 12 7 37 32 56 57 18 24 46 52 62
61 45 27 55 55 35 103 -20 51 -21 112 -1 150 20 39 74 79 111 82 72 5 94 -2
133 -41 52 -52 61 -104 32 -181 -12 -30 -21 -56 -21 -57 0 -1 40 -43 90 -93
70 -71 94 -90 109 -85 50 15 89 192 65 288 -38 149 -154 262 -305 296 -51 12
-87 12 -147 0z m178 -41 c210 -63 312 -320 208 -521 -8 -17 -12 -14 -29 20
-22 42 -92 111 -127 124 l-23 9 22 30 c14 19 24 49 27 84 16 196 -229 281
-342 119 -40 -57 -43 -145 -7 -194 23 -31 24 -33 6 -43 -38 -22 -113 -98 -125
-127 -17 -41 -31 -33 -53 32 -98 284 156 552 443 467z"/>
<path d="M1825 2273 c-32 -8 -74 -54 -85 -92 -15 -55 17 -116 73 -141 62 -28
103 -17 151 41 74 88 -21 220 -139 192z m80 -38 c59 -29 72 -96 28 -144 -61
-66 -163 -30 -163 57 0 24 8 49 20 65 18 22 31 29 73 36 5 0 24 -6 42 -14z"/>
<path d="M1766 1970 c-92 -36 -169 -138 -152 -203 7 -30 72 -74 140 -94 113
-34 278 -3 336 64 17 18 30 41 30 51 -1 36 -39 100 -82 135 -82 67 -178 84
-272 47z m189 -29 c52 -23 103 -74 126 -126 21 -46 21 -47 -66 -93 -45 -24
-61 -27 -150 -27 -91 0 -105 3 -158 29 -80 41 -83 47 -57 101 25 51 81 103
131 121 50 18 128 16 174 -5z"/>
<path d="M1100 1267 c-3 -3 -20 -7 -38 -10 -47 -8 -136 -52 -304 -150 -81 -48
-150 -87 -154 -87 -3 0 -20 -11 -38 -25 -18 -14 -36 -25 -39 -25 -3 0 -16 21
-29 47 -39 78 -106 93 -198 43 -30 -16 -70 -37 -88 -46 -18 -9 -44 -30 -58
-47 -23 -27 -26 -38 -22 -84 3 -29 12 -61 20 -70 9 -10 28 -40 42 -68 15 -27
31 -57 36 -65 40 -68 110 -193 110 -196 0 -2 11 -22 25 -44 13 -21 40 -68 58
-103 19 -34 59 -106 90 -159 99 -167 134 -171 332 -43 84 54 95 121 35 205
-11 16 -20 30 -20 33 0 3 17 15 37 27 35 21 62 22 118 6 6 -1 30 -8 55 -15 25
-8 50 -14 55 -15 6 -2 30 -8 55 -15 43 -12 52 -15 100 -25 11 -3 24 -7 28 -10
5 -3 22 -8 38 -11 16 -3 34 -7 39 -9 6 -1 30 -8 55 -15 25 -7 52 -15 60 -17 8
-2 39 -10 69 -18 30 -8 86 -14 130 -13 87 3 151 28 288 115 85 54 292 183 503
312 343 211 333 204 357 250 42 78 27 185 -34 241 -36 34 -59 45 -108 53 -93
15 -179 -19 -460 -183 -88 -52 -211 -123 -272 -159 -62 -35 -111 -68 -108 -73
10 -15 103 28 225 106 109 69 422 240 469 256 131 46 243 9 270 -88 16 -56 13
-89 -9 -133 -21 -42 -39 -55 -235 -175 -60 -37 -126 -78 -145 -90 -19 -12 -78
-48 -130 -80 -52 -32 -111 -68 -130 -80 -19 -12 -84 -53 -145 -90 -60 -37
-121 -75 -135 -84 -108 -68 -206 -84 -327 -52 -312 82 -454 120 -484 129 -94
29 -139 33 -182 14 -70 -31 -74 -42 -43 -120 35 -87 26 -121 -44 -161 -177
-102 -212 -96 -286 45 -66 124 -98 182 -160 286 -35 59 -64 109 -64 112 0 3
-13 27 -29 54 -128 217 -141 256 -104 300 23 27 131 88 184 103 51 16 79 3
115 -50 14 -22 35 -43 45 -46 17 -6 94 31 189 90 32 20 67 39 208 117 28 16
77 38 108 49 95 34 137 28 356 -46 108 -36 240 -76 293 -89 141 -34 177 -75
170 -194 l-4 -67 20 24 c45 55 10 185 -63 229 -26 15 -103 39 -188 57 -3 1
-25 7 -50 15 -25 7 -49 15 -55 16 -5 1 -74 25 -153 53 -129 46 -239 71 -252
58z"/>
<path d="M1035 1181 c-27 -10 -74 -32 -103 -50 -29 -17 -57 -31 -62 -31 -6 0
-10 -4 -10 -9 0 -5 -9 -12 -20 -16 -30 -10 -234 -130 -264 -156 -14 -12 -26
-29 -26 -36 0 -8 18 -45 40 -84 22 -39 40 -75 40 -80 0 -5 4 -9 8 -9 4 0 13
-12 19 -27 22 -51 104 -190 131 -221 25 -28 34 -28 96 4 l51 26 120 -32 c66
-17 152 -40 190 -50 39 -10 138 -37 220 -60 179 -51 265 -56 337 -22 24 12 50
22 56 22 7 0 12 4 12 8 0 4 14 16 30 25 17 10 30 16 30 13 0 -3 9 3 20 14 11
11 27 20 35 20 8 0 15 4 15 8 0 5 21 21 48 36 62 35 105 61 199 120 188 118
234 146 243 146 6 0 10 5 10 10 0 6 4 10 9 10 5 0 42 21 83 46 40 25 86 54
102 63 103 59 140 135 101 211 -57 110 -186 96 -421 -47 -54 -33 -117 -70
-139 -82 -22 -12 -58 -32 -80 -46 -22 -13 -74 -43 -115 -66 -41 -23 -76 -46
-78 -50 -2 -5 -11 -9 -21 -9 -9 0 -22 -5 -29 -12 -7 -7 -12 -9 -12 -5 0 4 -9
3 -19 -3 -41 -21 -171 -13 -296 19 -66 17 -131 35 -145 40 -14 5 -44 14 -67
21 -24 7 -43 18 -43 23 0 14 53 4 205 -37 72 -20 144 -36 160 -36 60 0 125 63
125 121 0 12 -10 39 -22 60 -17 31 -33 43 -75 59 -30 11 -61 20 -71 20 -16 0
-180 52 -376 119 -103 36 -167 39 -241 12z m360 -84 c105 -36 202 -68 215 -71
109 -21 131 -29 155 -58 30 -36 32 -76 5 -111 -32 -41 -65 -43 -190 -12 -8 2
-66 18 -129 35 -127 35 -161 32 -161 -14 0 -37 21 -48 150 -81 8 -2 42 -11 75
-20 105 -30 238 -52 295 -50 77 3 125 26 445 212 283 165 344 193 421 193 66
0 99 -33 99 -99 0 -41 -5 -55 -25 -74 -30 -29 -913 -571 -965 -593 -55 -23
-121 -23 -205 -1 -41 10 -79 20 -85 21 -5 2 -30 8 -55 15 -25 7 -52 15 -60 17
-8 2 -42 11 -75 20 -33 9 -64 17 -70 18 -5 2 -30 8 -55 15 -25 7 -52 15 -60
17 -8 2 -42 11 -75 20 -109 29 -120 29 -173 -5 -27 -17 -52 -31 -55 -31 -3 0
-14 17 -24 38 -9 20 -34 65 -55 100 -21 34 -38 64 -38 67 0 4 -18 35 -98 169
-20 33 -31 61 -26 63 20 8 81 42 231 129 175 101 216 123 253 135 56 18 144 1
335 -64z"/>
<path d="M315 995 c-33 -20 -67 -39 -74 -43 -8 -5 -24 -20 -34 -34 l-19 -26
46 -86 c25 -47 57 -104 71 -126 14 -22 25 -41 25 -44 0 -2 25 -46 55 -97 30
-52 55 -100 55 -106 0 -7 5 -13 10 -13 6 0 10 -7 10 -15 0 -8 4 -15 9 -15 5 0
14 -12 20 -27 5 -16 26 -55 45 -88 20 -33 43 -77 53 -97 16 -35 47 -58 79 -58
8 0 41 13 74 30 61 31 110 75 110 99 0 11 -139 269 -195 363 -5 9 -17 29 -26
45 -9 15 -26 46 -39 68 -13 22 -48 85 -79 140 -68 122 -80 139 -108 153 -28
15 -19 17 -88 -23z m108 -32 c13 -21 27 -45 30 -53 4 -8 19 -35 33 -60 14 -25
38 -67 52 -93 15 -26 32 -56 37 -65 27 -45 105 -185 105 -187 0 -2 27 -49 60
-104 33 -56 60 -104 60 -108 0 -3 7 -14 15 -23 18 -20 11 -47 -14 -55 -10 -3
-44 -21 -76 -40 -31 -19 -63 -35 -69 -35 -10 0 -82 115 -119 190 -4 8 -16 29
-27 45 -11 17 -28 48 -40 70 -11 22 -33 63 -50 90 -16 28 -33 56 -36 64 -4 7
-28 50 -54 95 -82 143 -110 195 -110 205 0 9 12 17 75 51 11 5 34 19 50 29 43
28 52 26 78 -16z"/>
<path d="M324 875 c-15 -23 -15 -27 0 -50 10 -15 26 -25 41 -25 15 0 31 10 41
25 15 23 15 27 0 50 -10 15 -26 25 -41 25 -15 0 -31 -10 -41 -25z"/>
</g>
</svg>
