<?xml version="1.0" standalone="no"?>
<!DOCTYPE svg PUBLIC "-//W3C//DTD SVG 20010904//EN"
 "http://www.w3.org/TR/2001/REC-SVG-20010904/DTD/svg10.dtd">
<svg version="1.0" xmlns="http://www.w3.org/2000/svg"
 width="225.000000pt" height="225.000000pt" viewBox="0 0 225.000000 225.000000"
 preserveAspectRatio="xMidYMid meet">
<metadata>
Created by potrace 1.10, written by Peter Selinger 2001-2011
</metadata>
<g transform="translate(0.000000,225.000000) scale(0.100000,-0.100000)"
fill="#000000" stroke="none">
<path d="M285 2241 c-77 -14 -139 -62 -172 -136 -17 -38 -18 -102 -21 -1052 -3 -1006 -2 -1013 18 -1033 27 -27 55 -28 40 -1 -5 11 -10 35 -10 55 l0 34 29 -29 29 -29 717 0 716 0 24 25 c33 32 35 103 5 130 -31 28 -24 35 31 35 l50 0 -25 -33 c-22 -29 -26 -44 -26 -101 0 -37 -5 -76 -10 -87 -12 -22 0 -25 31 -9 16 9 19 22 19 94 l0 84 44 6 c60 9 172 65 227 115 202 179 202 512 0 694 -58 51 -142 94 -216 109 l-55 11 0 328 0 329 173 0 c217 0 207 -7 207 146 0 128 -16 195 -58 240 -42 46 -74 64 -131 73 l-52 8 22 -23 22 -24 -32 0 c-48 0 -100 -26 -142 -71 l-37 -40 5 39 c10 76 49 72 -731 72 l-689 0 23 25 c13 14 22 24 19 24 -2 -1 -22 -5 -44 -8z m1382 -118 c-22 -38 -22 -43 -25 -519 l-3 -480 -58 -12 c-143 -30 -260 -121 -327 -257 -39 -79 -39 -79 -39 -200 0 -121 0 -121 39 -201 67 -134 185 -226 327 -256 l59 -12 0 -48 0 -48 -725 0 -725 0 0 989 0 989 27 33 c51 60 25 58 780 59 l692 0 -22 -37z m274 16 c57 -29 78 -80 79 -186 l0 -83 -145 0 -145 0 0 82 c0 102 24 159 79 188 47 25 82 25 132 -1z m-218 -284 c19 -19 29 -35 22 -35 -8 0 -22 -11 -33 -25 -11 -14 -23 -25 -26 -25 -3 0 -6 27 -6 60 0 33 2 60 4 60 2 0 20 -16 39 -35z m334 -23 c-9 -8 -23 -12 -33 -8 -15 6 -14 10 12 37 28 30 29 30 32 9 2 -13 -3 -29 -11 -38z m-327 -756 c0 -4 -20 -6 -45 -6 -50 0 -55 8 -25 35 11 10 20 25 20 34 0 9 11 -1 25 -21 14 -20 25 -39 25 -42z m-224 -39 c-218 -138 -290 -355 -188 -565 32 -67 120 -158 182 -189 58 -29 34 -30 -28 -1 -68 32 -147 115 -185 195 -30 64 -32 75 -32 179 0 107 1 112 37 185 42 85 89 135 168 178 54 30 83 41 46 18z m336 -39 c208 -96 283 -360 157 -552 -126 -190 -399 -219 -567 -62 -207 194 -133 531 139 630 68 25 198 17 271 -16z"/>
<path d="M396 1817 c-12 -9 -17 -23 -14 -42 3 -30 4 -30 71 -33 l67 -3 0 -177 c0 -183 4 -202 41 -202 44 0 49 22 49 206 l0 174 58 0 c32 0 63 5 70 12 17 17 15 42 -6 61 -16 14 -43 17 -168 17 -107 0 -155 -4 -168 -13z m192 -71 l-22 -33 -23 27 c-13 16 -23 31 -23 34 0 3 20 6 45 6 l45 0 -22 -34z"/>
<path d="M908 1813 c-26 -30 -160 -401 -153 -423 7 -21 46 -36 65 -25 7 4 19 25 29 47 l17 40 74 1 74 1 14 -42 c10 -30 21 -44 38 -48 30 -8 54 11 54 41 0 34 -139 398 -158 413 -22 17 -36 15 -54 -5z m60 -95 c11 -29 23 -64 27 -78 l8 -25 -28 28 c-34 33 -42 33 -73 5 l-25 -23 7 27 c10 44 45 118 55 118 5 0 18 -24 29 -52z m-10 -113 c5 -16 13 -38 17 -47 6 -15 1 -18 -34 -18 -23 0 -41 3 -41 6 0 19 36 102 41 96 3 -4 11 -20 17 -37z m98 -130 l7 -30 -24 21 c-13 12 -35 25 -47 29 l-24 7 21 22 c12 12 21 31 22 42 1 22 33 -44 45 -91z m-156 33 c0 -5 -4 -8 -9 -8 -4 0 -25 -11 -45 -25 -20 -13 -36 -22 -36 -20 0 2 10 30 21 61 l21 56 24 -28 c13 -16 23 -32 24 -36z"/>
<path d="M1180 1800 c-8 -16 -2 -37 36 -112 l46 -92 -46 -94 c-48 -95 -50 -121 -11 -136 27 -10 46 6 77 68 l31 61 30 -62 c32 -65 47 -78 78 -68 36 12 33 48 -14 141 l-45 89 47 93 c51 102 50 127 -5 127 -25 0 -33 -8 -60 -59 l-32 -60 -31 62 c-28 55 -35 62 -61 62 -19 0 -33 -7 -40 -20z m175 -136 c-14 -31 -25 -63 -25 -71 0 -12 32 -90 48 -117 3 -5 -11 3 -30 18 l-36 27 -31 -27 c-37 -31 -37 -30 -10 33 22 53 21 87 -5 146 -17 40 -12 42 26 10 18 -16 43 -8 68 21 22 27 21 18 -5 -40z"/>
<path d="M346 1064 c-9 -8 -16 -23 -16 -33 0 -38 17 -41 237 -41 199 0 213 1 223 19 12 24 4 48 -21 61 -10 6 -105 10 -213 10 -164 0 -197 -3 -210 -16z"/>
<path d="M342 828 c-18 -18 -14 -56 7 -68 13 -6 144 -10 359 -10 326 0 340 1 357 20 15 17 16 24 7 45 l-12 25 -353 0 c-261 0 -356 -3 -365 -12z"/>
<path d="M348 599 c-21 -12 -24 -49 -6 -67 9 -9 104 -12 365 -12 l353 0 12 25 c9 21 8 28 -7 45 -17 19 -30 20 -359 20 -213 0 -348 -4 -358 -11z"/>
<path d="M342 358 c-17 -17 -15 -44 4 -62 13 -14 60 -16 358 -16 330 0 344 1 361 20 15 17 16 24 7 45 l-12 25 -353 0 c-261 0 -356 -3 -365 -12z"/>
<path d="M1498 875 c-32 -18 -52 -72 -39 -106 39 -102 181 -74 181 36 0 36 -50 85 -87 85 -15 -1 -40 -7 -55 -15z m93 -57 c23 -42 -45 -90 -79 -56 -19 19 -14 55 9 71 25 18 56 11 70 -15z"/>
<path d="M1814 882 c-23 -16 -324 -400 -324 -414 0 -19 32 -48 53 -48 22 0 337 397 337 424 0 37 -36 58 -66 38z"/>
<path d="M1770 583 c-80 -72 3 -198 99 -149 81 43 61 158 -30 172 -30 5 -42 1 -69 -23z m102 -48 c9 -21 8 -28 -7 -45 -32 -36 -85 -20 -85 25 0 49 71 65 92 20z"/>
</g>
</svg>
