<?xml version="1.0" standalone="no"?>
<!DOCTYPE svg PUBLIC "-//W3C//DTD SVG 20010904//EN"
 "http://www.w3.org/TR/2001/REC-SVG-20010904/DTD/svg10.dtd">
<svg version="1.0" xmlns="http://www.w3.org/2000/svg"
 width="204.000000pt" height="192.000000pt" viewBox="0 0 204.000000 192.000000"
 preserveAspectRatio="xMidYMid meet">
<metadata>
Created by potrace 1.10, written by Peter Selinger 2001-2011
</metadata>
<g transform="translate(0.000000,192.000000) scale(0.100000,-0.100000)"
fill="#000000" stroke="none">
<path d="M1875 1578 c-11 -6 -54 -26 -97 -43 -76 -31 -88 -45 -41 -45 13 0 23 -1 23 -3 0 -12 -284 -286 -291 -281 -6 3 -21 -2 -35 -11 -36 -23 -413 -24 -446 0 -13 8 -28 15 -34 15 -21 0 -55 -34 -57 -57 -1 -14 -59 -81 -162 -183 l-160 -160 -40 20 c-21 11 -52 20 -67 20 l-28 0 0 230 0 230 560 0 560 0 0 30 0 30 -579 0 c-482 0 -580 -2 -590 -14 -8 -10 -11 -88 -11 -262 l1 -248 -38 -19 c-58 -29 -81 -55 -104 -116 -24 -65 -21 -125 10 -177 l20 -33 -82 -80 -82 -80 23 -23 23 -23 79 81 80 81 41 -20 c89 -44 218 -12 267 67 l26 41 494 -3 c363 -2 498 0 508 9 11 9 14 70 14 335 l0 324 -30 0 -30 0 0 -305 0 -305 -470 0 -470 0 0 46 c0 28 -8 61 -20 83 l-21 36 163 163 c110 109 169 162 184 162 12 0 27 7 34 15 10 12 47 15 210 15 163 0 200 -3 210 -15 16 -19 74 -19 89 -1 7 8 15 26 19 40 6 20 265 296 279 296 1 0 3 -11 3 -24 0 -46 16 -35 39 27 13 34 32 80 42 101 11 22 19 41 19 43 0 6 -15 2 -35 -9z m-1420 -760 c30 -14 32 -24 5 -33 -27 -9 -70 -66 -70 -94 0 -56 52 -111 106 -111 35 0 87 43 99 80 9 28 25 25 25 -6 0 -14 5 -34 11 -45 8 -16 3 -27 -31 -67 -23 -26 -55 -55 -73 -64 -40 -22 -109 -23 -171 -2 -42 14 -51 23 -69 63 -25 56 -27 134 -4 178 17 32 111 111 134 112 7 1 24 -4 38 -11z m106 -74 c16 -18 20 -28 12 -31 -7 -3 -13 -15 -13 -27 0 -59 -75 -90 -115 -46 -38 42 -7 110 51 110 13 0 24 5 24 10 0 17 16 11 41 -16z"/>
<path d="M1470 813 l0 -143 30 0 30 0 0 143 0 142 -30 0 -30 0 0 -142z"/>
<path d="M1215 780 l0 -110 30 0 30 0 0 110 0 110 -30 0 -30 0 0 -110z"/>
<path d="M958 765 l-3 -95 33 0 32 0 0 95 0 95 -29 0 -30 0 -3 -95z"/>
<path d="M1340 765 l0 -95 30 0 30 0 0 95 0 95 -30 0 -30 0 0 -95z"/>
<path d="M1085 750 l0 -80 33 0 32 0 0 80 0 80 -32 0 -33 0 0 -80z"/>
<path d="M830 735 l0 -65 30 0 30 0 0 65 0 65 -30 0 -30 0 0 -65z"/>
</g>
</svg>
