<?xml version="1.0" standalone="no"?>
<!DOCTYPE svg PUBLIC "-//W3C//DTD SVG 20010904//EN"
 "http://www.w3.org/TR/2001/REC-SVG-20010904/DTD/svg10.dtd">
<svg version="1.0" xmlns="http://www.w3.org/2000/svg"
 width="148.000000pt" height="148.000000pt" viewBox="0 0 148.000000 148.000000"
 preserveAspectRatio="xMidYMid meet">
<metadata>
Created by potrace 1.10, written by Peter Selinger 2001-2011
</metadata>
<g transform="translate(0.000000,148.000000) scale(0.100000,-0.100000)"
fill="#000000" stroke="none">
<path d="M676 1468 c-118 -16 -223 -93 -278 -206 -31 -62 -33 -74 -33 -167 0 -89 3 -106 28 -156 58 -118 157 -195 284 -219 162 -32 332 59 410 219 25 50 28 67 28 156 0 87 -3 107 -26 156 -76 161 -231 242 -413 217z m139 -38 c120 -42 195 -104 237 -195 18 -40 23 -67 23 -140 0 -78 -4 -97 -28 -146 -85 -175 -300 -244 -470 -151 -66 35 -131 111 -157 180 -56 148 12 340 145 410 58 30 170 70 185 65 8 -3 38 -13 65 -23z"/>
<path d="M352 655 c-71 -27 -132 -68 -179 -117 -38 -40 -93 -127 -93 -146 0 -24 85 -136 145 -191 100 -90 231 -157 359 -182 28 -5 101 -10 161 -10 179 0 316 46 459 153 66 50 178 177 191 217 14 44 -80 169 -170 226 -61 39 -155 75 -195 75 -16 0 -51 -13 -78 -30 -128 -78 -303 -77 -431 4 -50 32 -87 32 -169 1z m195 -57 c86 -42 90 -43 193 -43 103 0 107 1 196 43 87 42 92 43 135 32 83 -22 149 -62 210 -127 94 -101 91 -120 -31 -244 -112 -112 -216 -167 -398 -210 -46 -11 -92 -23 -100 -28 -10 -6 -27 -4 -46 4 -17 8 -71 23 -121 34 -144 34 -244 89 -352 196 -97 95 -113 126 -93 174 15 38 88 113 142 147 39 25 136 62 165 63 6 1 51 -18 100 -41z"/>
</g>
</svg>
